<svg xmlns="http://www.w3.org/2000/svg" width="147" height="22" viewBox="0 0 147 22"><g fill="none"><g fill="#D1C7B6"><path d="M65.6 4.7C66.8 4.6 67.9 4.2 69 3.7 69.2 3.9 69.5 4.1 69.7 4.3 70.9 5.2 72.3 6.5 73.1 7.7 73.2 7.9 73.3 7.9 73.5 7.9 73.6 7.9 73.7 7.9 73.8 7.7 74.7 6.4 76 5.3 77.2 4.3 77.4 4.1 77.7 3.9 77.9 3.7 78.1 3.8 78.3 3.9 78.5 4 79.4 4.3 83.3 5.6 83.6 3.8 84 1.6 80.9 1.9 79.6 2.2 79 2.4 78.4 2.6 77.9 3 77.4 2.8 77 2.6 76.5 2.4 75.7 2.1 74 2 74 0.8 74 0.4 73.6 0.3 73.4 0.5 73.3 0.6 73.1 0.7 73.1 0.9 73.1 1 73.1 1.1 73 1.2 73 1.4 73 1.5 72.9 1.5 72.7 1.6 72.6 1.7 72.5 1.7 72.4 1.7 72.3 1.8 72.2 1.8 71.1 2.1 70.1 2.5 69 3 68.8 2.9 68.7 2.8 68.5 2.7 67.3 2.1 64.5 1.3 63.5 2.7 62.5 4.2 64.4 4.8 65.6 4.7ZM79.8 2.9C80.1 2.8 80.3 2.7 80.6 2.7 80.8 2.7 81.1 2.6 81.3 2.6 82.1 2.5 82.6 2.9 82.7 3.9 81.8 4.6 79.7 3.7 78.7 3.3 78.7 3.3 78.7 3.3 78.7 3.3 79.1 3.1 79.4 3 79.8 2.9ZM72.5 2.5C72.5 2.5 72.6 2.4 72.6 2.4 72.6 2.4 72.7 2.4 72.7 2.4 72.8 2.3 72.9 2.3 73 2.3 73.1 2.2 73.1 2.2 73.2 2.1 73.3 2.1 73.4 2 73.4 2 73.5 1.9 73.5 1.9 73.6 1.8 73.7 2.1 74 2.3 74.5 2.5 75.4 2.7 76.3 3.1 77.2 3.4 76.9 3.6 76.6 3.9 76.3 4.1 75.3 5 74.3 6 73.5 7 72.5 5.7 71.1 4.4 69.7 3.4 70.6 3 71.5 2.7 72.5 2.5ZM65.6 2.6C66.1 2.6 66.6 2.7 67.1 2.9 67.5 3 67.9 3.1 68.2 3.3 68.2 3.3 68.2 3.3 68.2 3.3 67.1 3.8 65.4 4.4 64.2 3.9 64.3 2.9 64.8 2.5 65.6 2.6Z"/><path d="M73.1 4.7C73.4 4.9 73.8 4.8 74 4.6 74.2 4.4 74.3 4.1 74.2 3.8 74.1 3.6 74.1 3.5 73.9 3.4 73.7 3.3 73.3 3.3 73.1 3.4 72.8 3.5 72.7 3.9 72.6 4.1 72.6 4.4 72.9 4.6 73.1 4.7ZM73.3 4.1C73.3 4.1 73.3 4.1 73.3 4.1 73.4 4.1 73.4 4.1 73.4 4 73.4 4 73.4 4.1 73.4 4.1 73.4 4.1 73.4 4.1 73.4 4.1 73.4 4.1 73.4 4.1 73.4 4.1 73.4 4.1 73.3 4.1 73.3 4.1Z"/><path d="M146.6 19.6C146.2 19 145.2 18.7 144.6 19 143.1 19.6 142.2 21 140.6 21.2L136.9 21.2C137.3 21.1 137.7 20.9 138.1 20.7 141.1 19 144.2 15.4 142 11.9 141 10.3 138.9 10.1 137.2 10.1 135.8 10.2 134.5 10.5 133.1 10.8 132.6 10.9 132.1 11.1 131.6 11.3 131.6 11.2 131.5 11.2 131.4 11.3 130.9 11.4 130.4 11.6 129.8 11.7 129.7 11.7 129.6 11.7 129.5 11.7 129.4 11.7 129.3 11.7 129.3 11.8 124.7 12.7 119.6 12.2 115.4 10.4 114.4 10 113.4 9.4 112.5 8.7 110.7 7 113.3 5.7 114.7 5.1 117.6 4.1 120.9 4.8 123.9 4.9 124.1 5 124.4 5.1 124.6 5.1 125 5.3 125.2 4.6 124.8 4.5 124.7 4.5 124.7 4.4 124.6 4.4 124.6 4.3 124.5 4.3 124.3 4.3 124.2 4.3 124.2 4.3 124.1 4.3 121.4 3.5 118.4 3.3 115.7 3.4 113.2 3.5 109.5 4.1 108.9 7 108.6 8.5 109.9 9.8 110.9 10.7 106.8 8.9 102.7 7.2 98.3 6.1 91.8 4.4 84.9 4.5 78.9 7.7 76.7 8.8 74.4 11 73.6 13.5 72.8 9.9 68.2 7.4 65.1 6.3 55.3 2.9 45.3 6.8 36.2 10.7 37.4 9.9 38.3 8.5 38.3 7.1 38.2 4.2 33.9 3.6 31.8 3.4 29 3.2 25.9 3.4 23.1 4.3 23 4.3 22.9 4.3 22.8 4.3 22.7 4.3 22.6 4.3 22.6 4.4 22.5 4.5 22.4 4.5 22.4 4.5 22 4.6 22.2 5.3 22.6 5.1 22.8 5.1 23 5 23.2 4.9 26.2 4.8 29.1 4.3 32 5 33.2 5.3 36 6.4 35.1 8.1 34.5 9.2 33.1 9.8 32.1 10.2 27.9 12.3 22.6 12.7 17.9 11.8 17.8 11.7 17.7 11.7 17.6 11.7 17.5 11.7 17.4 11.7 17.4 11.7 16.8 11.6 16.3 11.4 15.7 11.3 15.7 11.2 15.6 11.2 15.5 11.3 15.4 11.2 15.2 11.2 15.1 11.1 14.3 10.8 13.4 10.7 12.5 10.5 10.9 10.2 9.3 10 7.7 10.3 5.1 10.8 3.9 13.4 4.6 15.8 5.3 18.3 7.8 20.2 10.1 21.2 10.1 21.2 10.1 21.2 10.2 21.2L6.6 21.2C5.1 21 4.1 19.9 2.8 19.1 2.2 18.7 1 18.9 0.6 19.6 0.1 20.4 0.6 21 1.2 21.2 0.9 21.3 0.9 21.9 1.3 21.9L2.4 21.9 6.6 21.9C6.7 21.9 6.8 21.9 6.9 21.9 6.9 21.9 7 21.9 7 21.9L12.4 21.9C12.4 21.9 12.5 21.9 12.6 21.8 13.4 21.9 14.3 21.9 15.1 21.9 21.7 21.9 28.2 21.8 34.7 21.7 43.8 21.5 53 21.6 62.1 21.2 65.6 21 71.8 20.7 73.4 16.7 73.5 16.5 73.5 16.3 73.6 16.1 73.8 16.9 74.3 17.7 75.1 18.4 77.3 20.5 80.9 20.9 83.8 21.1 89.6 21.5 95.4 21.4 101.1 21.5 111.5 21.6 121.8 21.8 132.2 21.9 132.7 21.9 133.2 21.9 133.7 21.9 133.7 21.9 133.7 21.9 133.8 21.9 133.8 21.9 133.8 21.9 133.8 21.9 134.1 21.8 134.3 21.8 134.6 21.8 134.6 21.8 134.7 21.9 134.8 21.9L140.1 21.9C140.2 21.9 140.2 21.9 140.3 21.9 140.4 21.9 140.5 21.9 140.6 21.9L144.8 21.9 145.9 21.9C146.3 21.9 146.3 21.3 146 21.2 146.6 21 147 20.4 146.6 19.6ZM2.4 21.2L2 21.2C2.3 21.1 2.5 20.8 2.5 20.4 2.5 20 1.8 20 1.8 20.4 1.3 20.8 1.2 20.6 1.4 19.7 1.8 19.5 2.4 19.6 2.7 19.8 3.2 20.1 3.6 20.5 4 20.8 4.2 21 4.4 21.1 4.6 21.2L2.4 21.2ZM12.5 13.3C15 13.7 17.4 14.2 19.9 14.4 22.6 14.6 25.4 14.3 28.1 13.7 29.2 13.5 30.3 13.1 31.4 12.8 27.1 14.6 22.8 16.2 18.3 17.1 15.6 17.6 11.6 17.8 9.8 15.4 8.3 13.4 10.9 13.2 12.5 13.3ZM42.5 13.5C44.3 12.4 47 13.4 48.8 14.1 50.4 14.7 51.7 15.7 53.3 16.4 54.6 17 56 17.3 57.4 17.3 59.4 17.3 62.1 15.8 61.6 13.4 61.4 12.4 60.7 11.4 59.9 10.8 61.3 11.1 62.6 12 63.1 13.6 64.1 16.2 61.4 17.6 59.3 18 57.3 18.4 55.4 18.5 53.4 18.6 52.4 18.7 51.3 18.9 50.3 19.1 50.9 18.6 51.4 18 51.5 17 51.8 14.8 48.4 13.8 46.8 14.1 44.9 14.3 44.3 16.2 46 17.4 47.1 18.2 49.9 17.3 48.6 15.7 48.3 15.4 47.8 15.9 48.1 16.2 48.9 17.1 46.6 17 46.3 16.8 45.8 16.6 45.4 15.6 45.8 15.1 46 14.9 46.4 14.8 46.7 14.7 48.5 14.3 51.7 15.6 50.6 17.9 50 19.1 48 19.1 46.9 19.1 45.5 19.1 43.9 18.8 42.6 18.2 40.6 17.2 40.7 14.7 42.5 13.5ZM56.1 19.1C58.1 18.9 60.7 18.9 62.3 17.6 64 16.3 64.3 14.4 63.5 12.6 62.9 11.4 61.9 10.7 60.8 10.3 62.4 10.4 64 10.7 65.5 11.1 67.6 11.7 70.3 13.1 69.6 15.7 69 17.5 66.3 18.2 64.7 18.5 62.2 19 59.5 18.9 56.9 19.1 56.6 19.1 56.3 19.1 56 19.1 56 19.1 56 19.1 56.1 19.1ZM55.4 14.4C56.8 15.5 58.9 14.3 58.5 12.5 58.4 12.1 57.8 12.3 57.9 12.7 58.2 13.9 57.1 14.3 56.1 14 54.4 13.6 55 11.5 56.1 10.8 56.5 10.5 57 10.4 57.5 10.4 57.5 10.5 57.6 10.5 57.6 10.5 57.7 10.5 57.8 10.5 57.9 10.5 59.1 10.8 60.2 11.8 60.7 12.8 61.8 14.9 59.6 16.4 57.7 16.6 56 16.8 54.2 16.1 52.7 15.4 50.4 14.2 47.7 12.3 44.9 12.3 48.4 11.2 52.1 10.4 55.8 10.2 54.3 11.1 53.7 13.2 55.4 14.4ZM41 17.7C41.4 18.3 42 18.7 42.7 19 41.8 18.9 40.9 18.8 40.1 18.5 39.3 18.2 38.1 17.9 37.5 17.2 37.1 16.9 36.1 15.7 36.8 15.2 36.8 15.2 36.9 15.1 36.9 15.1 38.5 14.5 40.1 13.9 41.7 13.3 40.5 14.4 40 16 41 17.7ZM37.2 18C37.9 18.7 39.5 18.9 40.4 19.3 40.6 19.4 40.8 19.4 41.1 19.5 40.9 19.5 40.8 19.5 40.7 19.5 40.7 19.5 40.7 19.5 40.7 19.5 39 19.5 37.4 19.6 35.9 19.3 34.7 19.1 32.4 18.3 32.3 16.8 32.3 16.8 32.3 16.7 32.3 16.7 33.5 16.3 34.7 15.9 35.9 15.4 35.7 16.3 36.7 17.4 37.2 18ZM31.6 16.9C31.8 18 32.9 19.2 34 19.5 34.2 19.6 34.4 19.7 34.7 19.7 30.1 19.9 25.5 20.2 20.9 20.6 22.3 20.1 23.8 19.5 25.3 19 27.2 18.3 29.2 17.7 31.1 17.1 31.3 17 31.5 17 31.6 16.9ZM72.9 16.1C72 19.5 66.7 20.1 63.9 20.4 58.2 20.9 52.4 20.7 46.6 20.8 38.8 20.9 31 21.1 23.2 21.1 36.4 20.2 49.7 20.1 63 19.4 65.1 19.3 67.4 18.8 69.1 17.4 70.8 16.1 70.6 13.8 69.2 12.3 67.4 10.3 64 10.1 61.6 9.7 57.9 9.1 54 9.4 50.3 10.2 44.8 11.3 39.5 13.4 34.2 15.3 31.6 16.3 29 17 26.4 17.9 23.7 18.8 21.1 19.9 18.4 20.6 17.9 20.8 17.5 20.9 17 20.9 16.4 21 15.8 21.1 15.2 21.1 15.1 21.1 15 21.2 15 21.2 14.5 21.2 13.9 21.2 13.4 21.2 13.4 21.2 13.3 21.2 13.3 21.2 12.4 21.2 11.4 21 10.5 20.6 8.3 19.8 6.1 17.9 5.2 15.7 4.7 14.3 5.2 12.8 6.2 11.8 7.1 10.8 8.7 10.8 10 10.8 11.5 10.9 13.1 11.2 14.6 11.7 15.5 11.9 16.3 12.3 17.2 12.4 22.8 13.6 29.5 12.9 34.3 9.8 36.2 8.5 36.5 6.8 34.5 5.4 33.4 4.6 32.1 4.2 30.8 4 33.1 4 36 4.4 37.3 6.3 38.9 8.8 35 10.6 33.3 11.3 31.2 12.2 29.1 12.8 26.9 13.3 22.5 14.2 18.1 13.5 13.7 12.8 13.7 12.8 13.7 12.8 13.7 12.8 12.2 12.5 9.8 12.1 8.9 13.6 8.4 14.4 9 15.4 9.4 16 10.2 17.1 11.7 17.6 13 17.9 16.7 18.7 20.7 17.3 24.2 16.2 28.2 14.9 32.1 13.2 36.1 11.5 43.4 8.4 51.1 5.1 59.3 5.7 62.6 6 66 7 68.9 8.8 71.4 10.3 73.7 13 72.9 16.1ZM135.1 13.3C135.7 13.2 136.3 13.3 136.9 13.4 138 13.7 137.8 14.6 137.4 15.4 136.8 16.4 135.4 16.9 134.3 17.1 130.2 18.3 125.5 16.4 121.6 15 119.8 14.4 118 13.6 116.2 12.9 117 13.2 117.8 13.4 118.6 13.6 121.2 14.3 124 14.6 126.8 14.4 129.6 14.3 132.4 13.7 135.1 13.3ZM85.1 20.5C80.9 20.3 72.8 19.5 74.3 13.4 75.1 10.3 78.5 8.4 81.2 7.3 84.2 6.1 87.6 5.6 90.9 5.7 96.7 5.9 102.3 7.8 107.7 10 113.4 12.4 119 14.9 124.8 16.8 128.7 18 135.1 19.6 138 15.7 138.7 14.7 138.6 13.4 137.4 12.9 136.2 12.3 134.7 12.5 133.5 12.8 133.5 12.8 133.5 12.8 133.4 12.8 129.2 13.5 125.1 14.1 120.7 13.4 118.5 13 116.4 12.3 114.3 11.5 112.4 10.8 109.1 9.5 109.6 6.8 110.2 4.1 115 4 117 4L117.1 4C115.7 4.2 114.4 4.5 113.1 5.1 110.9 6.2 110.6 8.2 112.6 9.6 117.3 13 124.3 13.6 129.9 12.4 131.3 12.3 132.5 11.6 133.8 11.4 135.9 10.9 138.2 10.4 140.2 11.3 142.1 12.1 142.5 14.5 141.7 16.2 141 17.8 139.5 19 138.1 19.9 136.7 20.7 135.3 21.1 133.8 21.2 133.8 21.2 133.8 21.2 133.8 21.2 133.2 21.2 132.7 21.2 132.2 21.2 132.1 21.2 132.1 21.1 132 21.1 131.5 21.1 130.9 21 130.4 21 129.2 20.8 128.1 20.5 127 20.1 125.2 19.5 123.4 18.8 121.7 18.2 119.7 17.5 117.7 16.9 115.8 16.3 108.2 13.8 100.9 10.4 92.9 9.6 89.4 9.2 85.9 9.5 82.5 10.2 80.1 10.7 77.4 11.7 76.9 14.4 76.2 17.6 80.5 18.9 82.8 19.3 85.3 19.7 87.8 19.6 90.2 19.7 93.5 19.9 96.8 20 100.1 20 108.3 20.1 116.6 20.5 124.9 21.2 120.7 21.1 116.6 21.1 112.4 21 103.3 20.8 94.2 20.9 85.1 20.5ZM110.3 15.1C110.3 15.1 110.3 15.2 110.4 15.2 111 15.6 110.1 16.8 109.9 17 109.2 17.7 108.3 18 107.5 18.3 106.5 18.7 105.5 18.9 104.4 19 104.9 18.8 105.4 18.5 105.8 18.1 107.4 16.5 106.8 14.5 105.4 13.3 106.5 13.7 107.6 14.1 108.7 14.5 109.2 14.7 109.7 14.9 110.3 15.1ZM89.8 17.3C93.1 17.4 95.5 15.3 98.3 14.1 100.1 13.3 102.2 12.7 104.1 13.3 106.5 14 106.7 17 104.5 18.2 103.6 18.7 102 19.1 100.5 19.2 100.4 19.2 100.3 19.2 100.2 19.2 98.7 19.2 97.3 18.9 96.6 17.9 95.1 15.8 98.5 14.7 100 14.7 101 14.7 101.8 15.2 101.3 16.3 100.8 17.5 98.5 16.8 99.1 16.2 99.3 15.9 98.9 15.4 98.6 15.7 97.3 17.2 99.7 17.9 100.9 17.5 102.6 17 102.6 14.7 100.9 14.1 99 13.5 96.2 14.5 95.7 16.6 95.3 17.7 96 18.5 96.9 19 96 18.9 95.2 18.8 94.3 18.7 92.2 18.5 90 18.3 87.9 18 85.8 17.7 83.9 16.6 83.9 14.3 83.9 12.3 85.5 11.2 87.2 10.8 86.4 11.5 85.8 12.4 85.6 13.4 85.1 15.9 87.7 17.2 89.8 17.3ZM99.9 12.8C98.2 13.2 96.5 14.1 95 15.1 92.8 16.5 86.2 18.2 86.2 13.7 86.2 11.9 88.3 10.5 90 10.5 91.7 10.4 93.1 12.7 91.5 13.9 90.5 14.5 89 14 89.3 12.7 89.4 12.3 88.7 12.1 88.6 12.5 88.2 14.5 90.3 15.3 91.8 14.4 93.7 13.4 92.8 11.2 91.3 10.2 95.1 10.4 98.7 11.3 102.4 12.4 101.5 12.4 100.7 12.6 99.9 12.8ZM83.9 12.2C82.6 14 83.2 16.3 84.8 17.6 86.4 18.8 88.7 18.8 90.5 19 90.5 19 90.6 19 90.6 19 88.4 19 86.3 18.9 84.2 18.8 82 18.6 78.3 17.9 77.5 15.4 77.1 13.7 78.7 12.3 80 11.7 81.4 11 83.1 10.8 84.7 10.5 85.2 10.4 85.8 10.4 86.4 10.3 85.5 10.7 84.6 11.3 83.9 12.2ZM109.9 18C110.6 17.6 111.4 16.3 111.3 15.4 112.5 15.8 113.7 16.2 114.9 16.7 114.9 16.7 114.9 16.8 114.9 16.8 114.8 18.1 112.8 19 111.8 19.2 110 19.5 108.3 19.5 106.5 19.5 106.4 19.5 106.3 19.5 106.3 19.6 106.1 19.6 105.8 19.6 105.6 19.6 107.1 19.3 108.6 18.8 109.9 18ZM113.2 19.5C114.2 19.1 115.4 18 115.5 16.9 118.6 17.9 121.6 18.9 124.6 20 125.2 20.2 125.8 20.4 126.4 20.6 121.6 20.3 116.9 20 112.1 19.8 112.5 19.7 112.8 19.6 113.2 19.5ZM142.5 21.2C142.6 21.1 142.8 21.1 142.9 21 143.3 20.7 143.7 20.4 144.2 20 144.5 19.7 144.8 19.5 145.4 19.6 145.5 19.6 145.6 19.7 145.7 19.7 146 20.6 145.9 20.8 145.4 20.4 145.4 20 144.7 20 144.7 20.4 144.7 20.8 144.9 21.1 145.2 21.2L144.8 21.2C144 21.2 143.3 21.2 142.5 21.2Z"/><path d="M77.5 11.5C78.7 9.9 80.7 9.3 82.5 8.8 84.4 8.2 86.4 8 88.4 7.9 93.2 7.9 97.7 8.6 102.2 10.3 102.6 10.4 102.8 9.8 102.4 9.6 97.7 7.9 92.8 7.1 87.7 7.3 84.3 7.4 79.1 8.1 77 11.1 76.7 11.5 77.3 11.8 77.5 11.5Z"/><path d="M132.1 19.8C133.5 19.9 134.8 20 136.1 19.7 137.3 19.5 138.3 18.7 139.2 18 140.7 16.8 141.4 14.4 140.2 12.7 139.9 12.4 139.3 12.7 139.6 13.1 141.1 15 139.3 17.1 137.7 18.2 136 19.4 134.2 19.3 132.1 19.2 131.7 19.1 131.7 19.8 132.1 19.8Z"/><path d="M59.8 7.3C54.7 7 49.5 7.9 44.8 9.6 44.3 9.8 44.5 10.4 44.9 10.3 49.3 8.7 53.6 8 58.3 7.9 60.3 7.9 62.3 8.2 64.3 8.7 66.2 9.1 68.4 9.9 69.6 11.5 69.9 11.8 70.5 11.5 70.2 11.1 68.1 8.2 63.2 7.5 59.8 7.3Z"/><path d="M15 19.2C13 19.3 11.2 19.3 9.5 18.2 7.8 17.1 6.1 15 7.6 13.1 7.8 12.7 7.2 12.4 7 12.7 5.7 14.4 6.6 16.7 8 18 10.1 19.8 12.3 20 15 19.8 15.5 19.8 15.5 19.1 15 19.2Z"/></g></g></svg>