<svg id="Layer_1" data-name="Layer 1" xmlns="http://www.w3.org/2000/svg" viewBox="0 0 134 134"><defs><style>.cls-1{fill:#fff;}</style></defs><title>Artboard 1</title><rect class="cls-1" x="80.41" y="33.22" width="3.86" height="32.2"/><rect class="cls-1" x="44.01" y="33.22" width="3.86" height="32.2"/><path class="cls-1" d="M67.51,132.79a1.17,1.17,0,0,1,.6,1.18A67.33,67.33,0,0,0,78.29,133l-.29-.39.47.35q1.74-.3,3.44-.69l-1,.19.44-.15-.15-.29c.8-.15.41.22.87-.58l1.09.54a66.46,66.46,0,0,0,9.27-3l.13-.42.15.15a.4.4,0,0,1,.07.14,66.91,66.91,0,0,0,15.06-8.75l-.27-.27.73-.73.29.29,0,.15a67.37,67.37,0,0,0,9.17-8.79l-.69-.1,1-1.17v.88a67.14,67.14,0,0,0,7.36-10.55l-1.24.5,1.31-.87h.14c.43-.78.84-1.57,1.25-2.37l-.52,0-.87-1.46c1,.42,1.29.9,1.73.75.24-.5.47-1,.71-1.51l-.4-.4.64-.13c.19-.42.39-.83.56-1.25l-.33-.08.15-.29.27.15q.53-1.26,1-2.54l-.37,0,0,0h-.29l.32,0,.53-.47c.32-.87.61-1.75.89-2.64l-.14-.22.34-.41q.85-2.79,1.47-5.68l-.06,0,.1-.15c.21-1,.39-2,.55-3l-.07,0v-.15l.11,0c.07-.45.13-.91.19-1.36l-.3.08-.44.15.29-.44.46.09c.12-.9.23-1.8.32-2.71h-.05l.06-.06q.1-1.1.17-2.21a1.81,1.81,0,0,0-.37.37l-.44-.73.86-.26c0-.51,0-1,0-1.54l-2.21.93-.15-.58,2.19-.58H134c0-.57,0-1.13,0-1.7,0-.24,0-.48,0-.73l-.34,0,.34-.06c0-.44,0-.87,0-1.31l-.31.06.29-.29h0q0-1.23-.13-2.45l-.46.12.29-1.17-.44.15-1.75.29-.29,1.75-.87-.15c.23-1.31.05-.43-.58-1.46a5,5,0,0,0,3.89-2c-.07-.67-.16-1.34-.25-2a1.64,1.64,0,0,1-.58-.08,5.12,5.12,0,0,0,.55-.16q-.35-2.46-.88-4.86a3.68,3.68,0,0,1-.25.5l-.58-.73c1.21-.59.16-.57.55-1a66.47,66.47,0,0,0-2.56-8.29l0,.14-.29-.58c-.38-.43-.27,0-.15-.58l.08.07a66.74,66.74,0,0,0-4.75-9.58v.19c-.53-.38-.25.07-.29-.58l.08,0a67.15,67.15,0,0,0-5.08-7.2l-.24,0v-.33q-1-1.17-2-2.3l.07.45h-.15v-.53A67.38,67.38,0,0,0,108,14l-.86.64.6-.85-1.22-.91a2.72,2.72,0,0,1-.7-.5q-1.44-1-2.93-2c-.61-.22-.89-.42-1-.63-1.23-.75-2.5-1.46-3.78-2.13L96.93,8l-.15-.15.66-.49-1-.53c-.53,0-.61.08-.53-.26q-3-1.42-6.08-2.54v.19l-.29.15-.09-.47c-.94-.34-1.9-.65-2.86-.95l0,.1-.07-.11A66.65,66.65,0,0,0,75.44.55l-.65.13.08-.2C73.34.3,71.81.16,70.25.08l.32.74L70.42,1,69.69.53,70,.08c-.68,0-1.36,0-2-.05L67.8.09l0-.07L67,0c-1.46,0-2.91.06-4.35.16,0,.35.27.56.63.81l-1.46.73L62.17.19a67.05,67.05,0,0,0-8.44,1.13L54.4,2l-2,.87-.15-.15,1.37-1.37c-1,.21-2,.44-3,.69l0,.1-.29,0c-.89.23-1.76.48-2.63.74v0L47.55,3l-.17-.08A66.58,66.58,0,0,0,34,8.72h0a67.17,67.17,0,0,0-11.16,8c1.18-.07,2.56-.37,2.63-1.15l.29,1c-1.68.33-2.24.14-3.2.87v-.5q-1.9,1.69-3.66,3.51l.89-.4v1.17l.15.15h1.46l-2.19.44c.24-1,.05-.84-.56-1.09-.54.56-1.08,1.13-1.6,1.72l.26,1.12-1.31.58c0-.25.07-.43.09-.59q-2,2.33-3.76,4.83l.46.28-.29.15-.54.1Q10.38,31.09,9,33.42a.49.49,0,0,1-.29.5c-.25.44-.5.87-.74,1.31l.36.12c-.15,0-.34,0-.45.05l-.25.49a5.69,5.69,0,0,1,1.72.63l-.15.29a3.84,3.84,0,0,0-2-.12q-.73,1.43-1.38,2.89l.89-.45.15.87-1.48.54Q4.21,43.4,3.25,46.38l.46-.11L3.85,46v1.17l-.15-.44-.49-.24c-.28.88-.54,1.76-.79,2.65l.25-.22h.44c-.07,1-.43.17-.58,1.46l-.44-.06c-.21.81-.39,1.63-.57,2.45l.28-.21L2,52.24v1.17l-.51-.3A67.16,67.16,0,0,0,.05,64.94l.74.12-.58.15-.17,0C0,65.81,0,66.4,0,67c0,.18,0,.36,0,.54l.34-.15c.55.44.28,0,.44.58L0,68.19q0,.55,0,1.1h0a.46.46,0,0,0,0,.1v0c0,.15.07.3,0,.39,0,.87.1,1.74.17,2.61a1.11,1.11,0,0,0,.41-.36l.73.15v.29l-.58.58A2.6,2.6,0,0,0,.28,73q.15,1.64.37,3.26a2.06,2.06,0,0,1,.29-.54h.73v1.17L.74,77q.26,1.72.6,3.42l.18-.05c-.31-.73-.28-.34-.15-1.17l.87-.29L2,81.37l-.43-.13q.36,1.68.81,3.33l.2-.14v.84c.09.32.18.65.27,1l.74-.64h.29l-.29.73-.69.1.3,1,1.41-.33.29.44-1.52.43c.18.56.37,1.12.56,1.67l.52.52H4.1c.11.29.23.57.34.86l1-.57.29.87-.29.15c-.25.06-.51.14-.76.21.18.46.35.92.54,1.38h.07l0,.1c.2.47.42.92.62,1.38A1,1,0,0,0,6,94l.13,1c.2.43.4.87.61,1.3l1-.58.44.44L7,96.74Q8,98.9,9.26,101l.57-.23.29.73-.62-.09.49.81,1.15-.57.44.44-.44.44-1-.11a67.17,67.17,0,0,0,4.57,6.45l.1-.07c.81.36.29-.2.73.73H15.2A67.4,67.4,0,0,0,24.76,119l.51-.91.44.15.15.58-.78.43,1.2.94a1.4,1.4,0,0,0,.31-.21l.37.74q1.18.88,2.4,1.7l.44-.11.73-1,.15,1.17H29.39c.46.31.93.61,1.4.91a2,2,0,0,0,1-.91L32,123a1.52,1.52,0,0,1-.73.61q2.34,1.48,4.81,2.77v-.32l.87-1.31c1.11-.16,1.06.08,1.75-.73l.44.44a9.06,9.06,0,0,0-2.19,2h-.65q2.65,1.37,5.44,2.51c0-.05,0-.15,0-.33l.36.48,1.05.42,0,0,.73.15v.18l.62.21.1-.39a1.38,1.38,0,0,1,.24.51q2.19.77,4.46,1.39h.26l0,.07c.82.22,1.65.42,2.48.61l.45-.39v.49q1.78.39,3.59.69a2.23,2.23,0,0,1,.35-.45l.73.29c-.11.09-.22.19-.33.29,1.73.26,3.5.44,5.27.57-.73-.5-.7-.28-.57-1l1,.73-.08.31c1.5.1,3,.17,4.52.17h.51C67.75,133.62,67.86,133.59,67.51,132.79ZM133.2,71.91l.15-.29.15.87-.58.15-.15-.15Zm-.73-9.76.44.15C132.69,62.34,132.28,62.56,132.47,62.15Zm-.44,1.6h.58v.15l-.15.44-.73-.15ZM4.44,89.24l-.15-.58h.44l.15.15Zm63.07,39.47.29-.44.58.15ZM64.3,115c.8.44.76,1.4-.15,1.89l-.73-.29C64.68,116.14,64.14,116.13,64.3,115Zm-.73,4.08.15.15.29.58-1-.29.44-.15Zm.44,2.77.87-.29.15.29c-.6.44-.32.32-1,.15ZM63.19,115h-4l.11.9-.58-.87,0,0H56.36l-.42-.41-1.84.28,1.09-1-1-.94v-.16l-.56.51-.29.29.15-.58.44-1.31.27.07v-1.32l-.71.09a4.26,4.26,0,0,1,.71-.16v-4.16l-.27,0,.27-.27v-3.12l-.13,0,.13-.08v-2L54,100.6v-.87l.27-.27V96.65a2,2,0,0,1-.13.6l-2.19.44a5.94,5.94,0,0,0,2.19-2.18l.13.05v-.84l-.56.2-.29-2a11,11,0,0,0,.85,1V90.28l-.56.12v-.58c.27-.19.46-.26.56-.34V89l-.13-.29.13-.06V87L54,87.2l.27-.68v-.78H52.94l1.29-1.15V83.28l-.27.14V82.1l.27.27V80.76L54,80.35l.27-.2V78.64a2.82,2.82,0,0,1-.56,0l.29-.87h.27v-2.1h.07l.09-.38,1-.58.73.29-1.45.67h2.82a2.23,2.23,0,0,1,.08-.38c.7.42.74.59.58,1.46h-.29l-.08-.16v5.07l2.12-1.41c.42.61.29.22.15,1l-2.26.6v5.33l.08.05-.08,0v5l.37-.25c.24.62.5.55-.37,1v8.45l.51-.26c.71.16-.12.68-.51,1v5.14l.51,1-.29.15h-.22v.94l1.24-.8,1.17.44.58,1-.87.29c-.27-1.21-1-.93-2.12-.66v1.72H60.1l.27-.18.09.18h1.22V108.9l-.73-.29.44-.29.29.58v-1.65l-.29,0-.15-.15.44-.65v-4.22l-.58.06.44-.44v-.29l.14.1V99.06l-.29.08.29-.29V91.38l-1.46.77,1.46-1.27V86.76h-.44l.44-.73V84.25l-.29.18L61,84.14l.58-.73.14,0v-.62H60.52l-.15-.29.73-.87.58.66V79.74a1.36,1.36,0,0,1-.44-.55l.44-.07V77l-.14,0,.14-.09V75.63h3.64v1l.44-.05h.29a1.2,1.2,0,0,1-.73.66v3.86h0v1.78l.15,0-.15.73h0v.77l.15.11v.15l-.15,0v3.72l.29-.1a.85.85,0,0,1-.29.37v4.73l.15-.15.87.87-1-.34v3.1l1-.72c.64.64.19,1.16,1.46,1.17v.58a11.57,11.57,0,0,1-2.48-.4v5.26l2-.64,1,.15c-1.66.58-2.41.43-2.48,2.33l-.59-.29v1.46h.29l-.29.38v6.85Zm-4.57,9.93.44-.15.29-.44h.44l.15.73.73,1c-1.15-.16-.88.2-.73-1Zm.58,4.37c-.6-.15-.56.17-.44-.44Zm-.58-13,.44.44-.15.15Zm1.75,6.85h-.44l.87-.44C60.78,123,61,123.07,60.37,123.18Zm-.44-1.31v-.58l1-.58v1Zm.44-2.91.29-.44H61C60.53,119.11,61.1,118.9,60.37,119Zm.44-1H59.5l.44-.15.15-.58.87.15Zm-.15,11.8.44.58C60.44,130,60.4,130.27,60.66,129.73Zm.29-2.48,1.89-1.46a1.71,1.71,0,0,1-.44,1.46Zm.73-2.77.15-.58.58.15Zm.73-1.89-.87.29.58-.87h.44Zm-1.31-3.93.87-.58V119Zm-7.43,7.72,1-.73.58.58Zm1.89,3.2H55l.29-.29ZM43.91,119.25l-1.75.15,2-1.6Zm.15,1-.73.29L43,121l-.29-.58.44-.15Zm-4.66-3.5h.44v.44C39.22,117.1,39.67,117.33,39.39,116.77Zm-1.75-5.1.44-.87.87.44-.15.44Zm.87,8.59h-.44l.15-.58Zm-3.06-5c-1,.55-.66,1-1,1.75l-.29-.15-.15-.15.15-.73,2.91-2.19h.58l.15.87Zm2.18.73c-.51.12-.18.17-.44-.29Zm-.87,2.33-.29.15-1.17-.15c.71-.34.44.14.87-.58Zm-4.22-2.48.15-.73.58.44Zm.15,1.89-.29.58c-.44-.58-.2-.1-.15-.73Zm-1.75-6h.29l.29.15Zm.58,2.91-.58.44.15-1.17.29.15ZM30.8,108l-.44.44-.58-.29.73-.29.29.15,1-.73C32.23,107.89,31.57,107.89,30.8,108Zm-.15,8.74h-.29l.15-.58Zm-5.24-9,.29.29C25.3,108,25.63,108.09,25.41,107.74Zm.29,3.5.15.15h.44l-.29.44-1.89.29Zm-.15-.44.29-.44.44.15Zm-.73-6.12.44-1.17H23.37v-.15l2.19-.87L25.7,104l.15.15H27.6Zm-3.35,5.24,1-.58.73,1.75h-.87l.44-.73Zm-3.79-4.37,2.91-2,.58.87-.15.15Zm2.91.87c-.5.34-1.24.39-.73-.15h.58ZM19,108.18l-.15.29h-.73l.15-.44ZM9.1,91.28l.87.29-.15.29-.44.29C8.75,91.49,9,91.94,9.1,91.28Zm.15,1.89c0,.29-.09.21-.29,0Zm.58,1.31V94h.29v.58c-.72-.23-.33,0-.73-.44Zm.73.58.44.29-1.31.44Zm-.29-1.17.15-.15.44.44Zm0-.58L10.12,93l.44-.15.15-.29H11v.73ZM10.12,91l.73-.29,1,.29-.15.29-.15.15ZM8.22,86.33l1.17-.73h.29C9.47,86.09,9.2,86.19,8.22,86.33ZM9,87.93c-.46,0-.09.07-.44-.15ZM6.18,80.5c.88-.17,1.17-.72.87-1.6h.87l.29.15C7.79,80.2,7.29,81.21,6.18,80.5Zm.44,1.75v1l-.29-.44ZM2.83,61.42l-.73.15-.87-.29h.58l.73-.87Zm-.29-2.91H3l.15-.29S3.16,58.7,2.54,58.51Zm1.75,3.2.44.44H4.29a1.47,1.47,0,0,1-1.75.44Zm.29-8.45h.87l-.58,2.48-1.17-.29c.66-.54.82-.52,1-1.6Zm4.08-4.81c1.93,1.11-1.17,2.17-2.19,2Zm-1-1,.87-.73C8.59,47.31,8.4,47.38,7.64,47.44Zm5-7.57.15.15-.29.15-.87.15.15-.73ZM12,34.33l.15-.29.44-.29.15.73-.29.29Zm.87,9.76c0,.57.22.26-.29.87l-1.17-.15Zm2.19-7.57.29,1.31-.44.29-1.75.29L13,37.82A2.73,2.73,0,0,0,15.07,36.51Zm-1.89-.29.44.15.15-.29-.15,1-.29-.15Zm1.17-2.77h.44l-.29.44C14.24,33.69,14.14,33.87,14.34,33.45ZM27.89,19.91a1.33,1.33,0,0,1-1.17,1.6h-.44A4,4,0,0,0,27.89,19.91Zm-1-3.35v-.29C27.1,16.44,26.87,16.55,26.87,16.55Zm1.31,5.68,1,.58V23L26,23.4v-.15C27.45,23.06,28.1,22.87,28.18,22.24Zm.44-2.62.44.15C28.59,19.78,29,19.83,28.62,19.61Zm3.5,4.81c.59.27.2,0,.29.58l-.15.15-2.48.29.58-.15ZM30.8,20.2l.73-.15.44.29-.73.29ZM34,18.3c-.12.36-1.66,1.45-2,1.17Zm-1.46-.15.29-1.31.44.87ZM35,21.22l.44-.15-.87.73-.15-.15.15-.73Zm-.44-4.52.44.15C34.57,16.81,34.94,17,34.59,16.7Zm0,5.24.29.73-.44-.44ZM35,24.13c-.59.11-.23.34-.58-.15Zm1,1-.29,1.75,1.46.29v.29l-2,.73c.5-.62.58-.44.58-1.31L34,27l.29-.58Zm.15-1.46v-1l.73.44v.44l-.58.29Zm1.17-3.79.73.15-.44.44C37.12,20.1,37.43,20.55,37.36,19.91Zm3.5,7-.58-.15.29-.44C41.16,26.58,40.52,26.33,40.85,26.9Zm-1,2.62,1.31.44-1.46.15Zm-.15-1.46.87.15-.29.15Zm.15-6.85h-.44l-.15-.15.29-.58.73.29Zm-.44,13.26.73-.58.31.09V31.7l1.27-1.24-.12-.95.38.69.59-.58h3.56l.71-1.13c.47.44.36.57-.15.87l-.26.26h3l2.09,2a3.35,3.35,0,0,1,.3-.4,3.46,3.46,0,0,1,0,3.2,3.13,3.13,0,0,0-.26-.39V47.14h.26l-.15.58-.11-.15v.79l.11-.06.15.29-.26.09v3.58l.7-.31.29.58-1,.27v7h.11l-.11.34v1.28l.26.13-.26,0v5.32l-.51.49,0,.26-.29.29-.27,0L49.39,69H48v.87l-.87.29-.29-.58c.86-.21.83-.21.71-.58h-5L41,67.45a2,2,0,0,0-.55.52L40,67.68V67.1l.46-.16h0V66l-.89.07c1-.59.93-.61.44-1.46l.45-.2V63.18l-1,.28-.15-.29a4.79,4.79,0,0,1,1.18-.4v-1L38.67,62l.29-.58.73-.44.74.23V54.73a5.05,5.05,0,0,0-1.47.72L39.1,57l-1.31-.44c1-.74.61-1,.58-2l2.05-.48V43.19a1.32,1.32,0,0,1-1.47,0l1.17-.29.31.08V38.58l-1.18.26.44-.15.15-.29.6.12v-4.2L39,34.62Zm5.1-10.92c.2.95.07.32-.44.87l.73.44-1.17-.15v-.58l.15-.29Zm-.44-9.47h.58l-.44.58Zm.15-7,.44-.29.44.15-.44.44ZM42.74,26.75l.87.15-.73.73V26.9Zm2.19,1.46.44.29-3.2.87H42l.44-.29ZM43,20.2l.44-.15.15-.29C43.88,20.18,43.65,20.59,43,20.2Zm-.15-.87-.29.15L42.31,19v-.29l.29.15H43Zm0,3.5c.61.5.46,0,.29.73l-1.31.15v-.15Zm-.58,2.77-1.17.29.29-.44.29-.29Zm-.58,1.31-.29-.15.15-.44ZM49.15,6.65l.15.29C49,6.92,49.24,7,49.15,6.65ZM50,15.1l.29.29c-.15.46-.7,1.09-1.17.44l-.44-.44h-.15l-1.31-.15V15.1l.73-.29v-.15l-.58-.29,1.31.29v.73l.15-.15C49.56,15.51,49.48,15.59,50,15.1Zm.29-.73.44.15-.87.29v-.44l.29-.15Zm-.15-2h.29C50.5,12.62,50.37,12.54,50.17,12.33Zm2.48,1.6.15-.29.58.58-.15.15-1-.29ZM52.5,9.56l.44.15C52.53,9.91,52.56,9.8,52.5,9.56Zm8,1.17a3.94,3.94,0,0,1-2.77-1.17A4.4,4.4,0,0,1,60.52,10.73ZM59.06,8.11l.58-.58-.44.58Zm7.43,1.46.15.87H65.18l.15-.15Zm-1-1.89.29-.44.15.44Zm6,9c.35.74.22.3.15,1.31l-3.06.29,2.18-.73-.15-.29-2-.58.44-.15.15-.44C69.85,16.54,70.27,17.31,71.44,16.7Zm-2.19-4.37.44-.87.44.44-.29.58ZM71.59,10c-.12.51.08.2-.44.29l.15-.29Zm0-3.06H72C71.7,7.17,71.21,7.17,71.59,6.94Zm0,5-.15.29-.15.29-.44-.87Zm-.44,1.17.15.29,0,0c.12.34.09.3-.69.55l.69-.55C71.23,13.3,71.19,13.19,71.15,13.06ZM70.42,9l.29-.87.15,1.17Zm3.64-4.22.15.29C73.88,5,74.15,5.07,74.06,4.76Zm.58,9.91-.29.87-.58-1.6Zm.29-6.85-.29-.29.58.29Zm.44,3.79.15.29c-.58.44-.1.2-.73.15l.44-.15Zm-.29,4.08,1.17.44-.15.29L76,16.7c-1,.28-1,.46-1.75,0C75.12,16.15,75.1,16.54,75.08,15.68Zm3.2-2.48.29,1.17h-.15c-.51-.22-.13-.17-1.31.15Zm-.73-9.47h.29C77.88,4,77.76,3.95,77.56,3.74Zm2,11.94-2.19.73-.15-.87.73.15.15-.29Zm-1-4.81.44-.29C78.9,11.07,79.1,10.83,78.58,10.87Zm5.1,5.39.73.58c-.81,1.14-1.14.74-2.19.87Zm-.58-4.08-.15-.44.29.58ZM83.38,11l.58.15C83.73,11.2,83,11.45,83.38,11Zm3.2.73.29-.44C86.77,11.53,87.08,11.57,86.59,11.75Zm1.89.73h.29l.29.15a31.39,31.39,0,0,1-3.5,2l.15-1.17C86.68,13.21,87.83,13.2,88.48,12.48Zm1.75.73.87.87-.44.44-1-.44-.29-.29Zm-.58-2.62.73.15C90.26,10.77,89.21,11.18,89.65,10.58Zm3.5,11.07c.63.4.2.25-.15.73V21.8ZM93,20.78l.58-.58C94.37,20.42,93.3,20.69,93,20.78Zm.29,3.35.58.44-.44-.29c-.46.4.07.27-.58.29Zm-.73.73-.87.29.29-.44.15.15Zm-.44-6,.15-.29S92.26,19.18,92.12,18.89Zm.44,8.45L93,27l.44.87h-.87ZM92.12,16.7c-.52,0-.2-.12-.44-.29l.73-.15.44.15Zm.15-3.2-.58.29-.15-.73.87.15Zm1.25,16.08L94,35.26c.14.19.14.24,0,.4l.23,2.61.91-.3-.85,1L94.77,44l.13.06-.12,0,.34,3.92.07,0,.18.41L96,41.35l-1.25.11.87-.73.4.32.64-7.14a10.48,10.48,0,0,0-1.47-1.34,4.77,4.77,0,0,0,1.61-.2l.25-2.8h3.36l.59,6.87.31.21-.28.16.09,1.1.48-.24.44.44h-.9l.24,2.84.22-.36H102l-.64.53.32,3.78.17-.09.44.29-.15.58-.38.19,0,.58.47.09.36-4.18L102,42l.71-.45,1-12H107l.17-.06,1-1.17.15,1.31c-.69-.18-.4-.05-.9,0l-.06.74h.38l.29.15c-.6.22-.46.47-.69.12L107,34.31l1.15-1.3.87.15v.58l-.29.44-1.74.14-.32,3.73,2.21-1,.44.15c-.2.43.12.11-.29.44s-1.71.86-2.36.5l-.79,9.14.1.12h-.11l-.35,4,.16-.07c.11.41,0,.57-.21.62l-.71,8.15.48.12-.5.19-.47,5.37.24.85-.32.08L104,69H100.4v0l-.27,0,.25-.16-1.1-12.66h-.61l.59-.29L99.1,54l-.13.13-.58-.43L98.29,55c.69.27.23,0,.54.57l-.54-.54L98,58.46l.38.63h-.15a1.57,1.57,0,0,0-.27-.2l-.4,4.9a2.09,2.09,0,0,0,1.25-1.36l.73.29.15,1a9.81,9.81,0,0,1-2.15.43l-.2,2.51c.52-.55.38-.68.46-1.49h1l-.29,2-1.23-.12-.1,1.19.3.1c-.37,0-.21.08-.31,0l0,.61H97.1l.42.14-.15.73h-.87l-.15-.15.29-.44.43-.28H95.61l-.14.14L95.34,69H93.52l-.06-.75-.45.16.42-.6-.34-3.94c-.77.41-1.63.71-2.12.46l.29-.15L93,63.47l-.35-4.09h-.43V58.8l.41.41L92.33,55l-.06,0v-.15l0,0-.3-3.5,0,0,0-.07-.74-8.73a.93.93,0,0,1-.74-.38l.72.07-.34-4h-.37l.34-.34-.68-8-.54.2.51-.51v0h0l.06-.06h.58v.06Zm.36-16.66.44.15C93.85,13,94.22,13.21,93.87,12.91Zm.58-.29V11.17l.58,1.6Zm.73,8.45.44-.58-.15.58-.44.44-.15-.29ZM95.47,25l.44.15-.29.58-1.17-.15Zm2.77-1.75c-.95.22-.75,0-1-.44Zm-.15-2.77.58-.44c.94.28.86.12,1,.73l-1.46-.15ZM98,24.57l.15-.44.58.15L97.51,25ZM98.68,27l.15-.29v.87h-.58l-.15-.15Zm0-1.17.87-.29C99.95,26,99.18,26.36,98.68,25.88Zm1.75,1.89c.22.79-.62.88-1.46,1Zm-.44-6,.58-.87C101.28,21.07,100.46,21.59,100,21.8Zm.15,2.77L99,24.71l.73-1Zm-3.06-7.43.15-.87A1.61,1.61,0,0,0,99,15.53l.87.15Zm.29,1.6.44.58-.29.15c-.91-.13-.47.13-1-.44Zm-1.17-.58v-.29h.29C96.34,18.25,96.6,18.26,96.2,18.16Zm.87,3.35.15.87-.44-.29-.73-.29Zm-2,8.3c1.11-.27.72-.12.87-.73l.15-.15C97.05,29.79,95.66,30.16,95,29.81Zm-.29-2,.29.58C94.51,28,94.78,28.42,94.75,27.77Zm.73,8.3-.15.87-.58.15Zm-.29-9.18h.29l.29.15Zm6-1.31.58-1,.29,1-.73.15Zm1-7.14v-.73h.29Zm2.91,1.6.15.15-1.6.73-.29-.15.15-.15,1-.58Zm-.44-1.46.29.29C104.53,18.87,104.51,19,104.65,18.59Zm.44,8.74-1.31.15.44-.58,1.31.15Zm.15,1.46-.44-.15-.15-.15Zm-1.75-2,.43-.43c0-.07,0-.17,0-.29v.29h0C103.93,26.71,104,26.33,103.49,26.75Zm.58-2.33h.44l.29.15v.15l-.87-.15Zm-.15-1.17.29-.44h.29v.58h-.44Zm-.29-1.89c-.09.69.11.78-.73,1.17l.15-.58Zm-.73-3.06h-.15l.15-.58C103.28,18.16,103.15,17.78,102.9,18.3Zm5.83,3.06.29.15.15.58-.87.15Zm-.44-3.5v-.29l.58.15Zm9.61,29c.23-1,0-.72,1-1.46l.73.15c-1.11.5-1.11,1.31-1.6,1.89-1.21-.18-.56-.65-1.75.15l.44-1.46.15-.44Zm-.44-12.24c1,.35.92.39.29,1Zm5,10.78c.83.32.71.64-.15.87l.29-.44Zm6.85,7.72.44-.29.44,1.89-.15.15c-.8-.45-.37-.08-.73-.87C129.86,53.4,130,53.64,129.27,53.12Zm-.15-1.46.44-.29.29.44Zm-.29-1.46.15-.87.15,1Zm.15,7.57-2.19.15c-.94,1-.58.91-.44,1.46-.44.51-.12.36-.87.29l-.15-.29.58-1.46.15-.29.73.29,1.46-1.46C128.79,56.88,128.53,56.84,129,57.78Zm.29,4.22-1,.15-1-2c.71.49,1.07,1.27,1.89,1.17Zm-.15-1.46.15-.58c.32.55.35.09,0,.73Zm-.44,7.57L129,69v.15l-3.06.58.44-.15c.63-.64,1-.46,2-.58C128.52,68.19,128.31,68.68,128.69,68.12Zm-.15-.44.15-.29H129C128.68,67.83,129,67.94,128.54,67.68Zm1.31,8-.73,2.18-.58.29.15-.44.44-2Zm-.73-1.17c1-.48,1-1.25,1.46-1.89l.15,1.89Zm-1.46-1,1.17-.87.15.73Zm-3.2,15.73.29.87c.06,1,.23.77,1,1l-1,.44-1.17-.87c.31-.53.86-1.27.44-2l2.77-1.46C127.26,88.71,126.15,88.54,124.46,89.24Zm2.33.58-1,.44.44-.58Zm-3.35,2.91,1.46-.44-.29,2-.87.15-.15-.15C124,93.4,124.1,93.45,123.44,92.74ZM113.1,105.12c.55-.77.69-.32,1.31-.73l-.15-.15-.15-.15.44-.87c.22.71.15.44-.15,1.17l.58.58Zm1,5.83c.25.56-.26.35-.44.44Zm-9.61-3.64-1.6.29.15-.29,1.89-.87C105.44,107.08,105.22,107,104.51,107.3Zm.44,6.7h-1.17l1-.73Zm-3.64-.58,1.46-1,.58.87Zm1.6,1-.15.29-.58-.15v-.29Zm-5.68-8.16.58-.73.44.15Zm.58,3.79c-.52,0-.18.06-.44-.29Zm-1.46,9.61.58.15v.44l-.58.15.15-.44Zm.58-.15-.29-.58.15-.15Zm-.73-5h.44l.29.15C96.32,114.85,96.7,115.12,96.2,114.59Zm.87,10.2-.15.15-.44-.58Zm-.15-15.59-.87-.44,1,.29Zm-4.37,7,.44-.58,1.31.15Zm1.31,2.91v.73h-.15Zm-8.74,4.66,2.62-2L88,122l-.15,1.17Zm1.75.58-.29.73-.29-.15v-.44Zm-8,2.33c1.25-.25,1.75-.19,1.75-1.31.86.74.66.61,0,1.46C80,126.88,78.4,127.36,78.87,126.68Zm1.31,1.46-.58.15.15-.29Zm-6.12,0,.29.29C73.95,128.37,74.26,128.36,74.06,128.13ZM73,127l1.6-1.31.87,1Zm-2,.58v.58l-.58-.15.15-1,.29.29C71.15,127.41,70.91,127.43,71,127.55Zm-.44-1.31.15-.29H71C70.88,126.46,71.08,126.14,70.57,126.24Zm.44-1.31.58-1,.44.73Zm0-3.35,2.62-2.18h.44l-1.6,2Zm3.35-3.06-2.19.29c1-.33,1-.49,1.75-.44l.29-1.46C74.63,117.4,74.57,117.71,74.35,118.52Zm.29,3.2-.44.44v.29l-.87-.15.58-.29.15-.29Zm-1.46,3.06.29.87-.73.15-.44-.44Zm1.31.29.15-.15.44.44Zm.87-.44h.73C75.45,125,75.55,124.72,75.37,124.64Zm-1.46-.73,1.89-1,.44.15v.44Zm.73-4.81,1-.44.29.15C75.6,119.14,75.59,119.37,74.64,119.1ZM75,115l.06,0-.58.15-.58.15.24-.31H71.41c.32.36,0,.5-.26,1.19l-.44-.29h-.58l1-.9h-.35l-2.13-2.07v-4.64l-.15,0,.15-.09v-4.32h2.57l.34-.54.07.54h.67v7.5h3.11l.09-.18.3.18h.36v-4.56l-.08.16.08-.66v-6.19l-4.81-6.61-.66.06a4.12,4.12,0,0,0,.17-.73l-2.2-3v-1.2h0V79.54l-2.48.24a3.48,3.48,0,0,0,2.19-1.31l.3.35V77.59l1.57-1.53-1-.22,1-.29.17.33.37-.36h4.89l0-.12.58-.73-.28.85H77.7l.81.81.07-.35,1.17.29-.72.57.74.74v4.25l.12-.32v1.17h-.12v.73h.41l-.29.29h-.12v1.65l.12-.19.44.87-.56.14v.43H76.18V84.14h-.37l.37-.11V79.9l-.23.46-.44-.29.44-.29h.23v-.61h-1v0l-1,.29v-.32H73.07l.26.18-.44.44v-.61h-.58v3.22l1.3-1,.29,1.31-1.6.11v2l.58.05-.58.19V86.4l.43.07-.43.34v2.27l.58-.58-.24,1.08,5.57,7.63-.09-1.28c.72.7-.11.82,1.17,1.31v.15l-.67.38,1.13,1.54v2a2.74,2.74,0,0,0,.41-.69c.31.5.34.89-.41,1.2v4.93l.27.13-.27-.05V108h.41a2.42,2.42,0,0,0-.41.87v1.59l1.29-.71-.15.87H79.77v2.28L77.7,115Zm-5.48,5.41h.29c-.12.51.08.2-.44.29ZM69.4,115v-.44l.29.29Zm-.15,12.24-1.17-.15.15-.58.73-.58C69.41,126.52,69.21,126.45,69.26,127.26Zm-2.62-21.12.58-1.17.44,1.17h-1Zm.87,5.1c-.24.22-.29-.15-.29-.15Zm-1.46.15h.29l-.29,1.75-.44-.15Zm-.73-2.77.87.15v.15C65.33,109.23,65.37,109.35,65.32,108.61Zm.58,5.53.44-.29.44.15.15.29C66.24,114.58,66.42,114.52,65.91,114.15Zm.87,3.06c-.38.8-.69.28-.87.15.6,0,.12.23.58-.15Zm-.29-27.09h-.87L65.47,90l.15-.29,1-1h.44l.44.44Zm.44,1.31c-.12.19,0,.49-1,.73ZM59.5,73.36H58.33l.73-1.17.58.15Zm.29,3.79-.29.44h-1l.15-.29.87-.44Zm-1,1.17,1.17-.15c.21.54-.39.77-1.31,1.31l-.29-.58Zm-.15-8.45L59.86,69H56.5l-.21.14V69H54.88V66.65c-.15,0-.23-.05-.48-.28a1.6,1.6,0,0,1,.48-.11V59.45c-.62.32-1.41.55-1.94.81l-.15-.58a7,7,0,0,0,2.08-.61v-8.4l-1.64.27.44-.15.29-.44.92.26V50.3l-.19,0v-1l.19.09v-1.6l-.19,0,.19-.28V34.13l-2.08-.24,2.08-.66V29.63h3.58v1.15l.16-.1a.87.87,0,0,1-.16.64v2.35l1.47-.52.15.58a7,7,0,0,1-1.62.42v1.41l.16-.38h1.17c-.78.46-1,1.18-1.33,1.61v4.12l.16,0c.3.26.12.35-.16.37v3.47l1,.38-.15.29-.89.15v8.95l0,.08h0v2.37l.6-.77.44,1.31h-1v.68l1.47-.68,1,.44-2.49.92v1.93l.31-.09h.73l.15.15-1.18.43v1.26c1-.33,2-.57,2.35-1.4l.29.29v.29l.15.58-2.78.56v2.57H60l-.63-.21.73-.44.28.65h3v.84l.39.7-.39.3V69h-1l-.21.43L61.83,69H60.26l.69.58Zm-.73,1.89-2.48.87c.6-1.24,1.3-1.1,2.19-1.75C58,71.4,57.85,70.93,57.89,71.76Zm0,1.6-.87.73-.29-.15-.15-.15.29-.29.58-.29Zm-4.66,4.08H51.92V77.3l1.17-.73.29.58Zm.73,3.5c-.13.29-.21.94-1,.58Zm-.73,20.25c-.11.09-.62.4-.44,0Zm-.29-2.48.58-.44.58.15Zm0,6.26c-.24.22-.29-.15-.29-.15Zm-.15,1.31.29.29-.58.15Zm1.31,2.77c.51.73-.87.4-1.17.29Zm-1.17.58-1.6.15,1.17-.29Zm-1.6,6.7.29-.15h.58l-.15.44v.15Zm.44,1.89-.29.73-.15-.73Zm.15-6.41.58.29C51.86,112.22,51.85,112.4,51.92,111.82Zm.15-3.5-1.46.58v-.58c.78,0,.81-.18,1.46-1l-.15-.15c-.52-.08-.21.18-.44-.29l.44.29.44.29Zm-1.89,7.43.29-.29.15-.29h.29l.15.29Zm.87.87-.15.58-.15-.58Zm-3.64-2c1.07,0,1.46-.19,1.46-1.17.88.25.53,0,.87.73l-.15.29C48.72,114.85,48.23,115.15,47.41,114.59Zm.58,3.06v.44l-.44-.44Zm-1-8.74.73.15-.15.73h-.44v-.58Zm0,8.16c-.67-.57-.46-.19-.58-1.17l.73.29-.29.29Zm-3.5-7.72-.73-.44.15-.15h1Zm0,2.33.29-.58C43.87,111.49,44.11,111.53,43.47,111.67Zm-.44-1h-.15v-.58l.29-.29C43.36,110.47,43.48,110.09,43,110.65Zm-.29-2.19-.44-.44v-.15l1-.58.44.29Zm-2.33,1.31.87-.87.87,1.17.29.15-.15.58h-.44l.29-.73Zm-5,1.17.44-.73,1-.29.15-.73.58,1.6Zm2,1-1,.15.58-.87Zm-5.83-10.78.15-.15c.91-.34,1.35-.4,1.75-1.31l1.46.73Zm1.89,2.62-.87.58.44-.73Zm.15,5.1c-.87.55-1,0-1-.58Zm-2.33-4.37-.15.15h-.73l.15-.44.73.29.44-.58.44.15.15.29Zm1,1.89-.44-.15.29-.73ZM17.69,96.38l1.89-1.17.44,1ZM18.86,99h-.58l.44-1Zm-3.93-6.85.29,1.46-.58-.15C14.92,92.46,14.4,93,14.92,92.15Zm.29,2,.29.29-.73.29Zm-1.46-3.93-.15-.15.87-1c-.52-.08-.4.08-.29-.44l1.09.44h.07l0,0,.24.1.29.73Zm-3.2-8.89v-.29l-.15-.15,1.17-.44C12,81.2,11.34,81.18,10.55,81.37Zm.29,5.83L11,85.6C11.6,86.38,11.48,86.78,10.84,87.2ZM6.77,70.74l-.15-.15.58-.44C7.14,70.46,7.36,70.33,6.77,70.74Zm.15,1.6H6.77l-.58-.58.44-.29ZM5,67.25,4,67c.27-.64,1-1.33.29-1.6l2.62-1.46.15.73C5.46,65.32,4.8,65.27,5,67.25Zm1.75,0v.58L5.6,68l-.15-.15L6,67.25ZM5.45,68.41,4.87,68h.44Zm.44-6.12L5.75,62l-.15-.29,1.17-.58.44.15Zm2.19.15L7.49,63.6H7.35L7.2,63Zm.29-6.85a1.15,1.15,0,0,1-.15,1.75l-.44.15Zm-.58-3.2.29-1.17c.44.62.33.58-.15,1.31Zm1,8.45-.29-.58L9,61l-.73.44-.73-.29Zm1.46-4.08-.58-.29.87.15Zm.29,5.54H9.24l1-.73Zm-.58-5,.29.73-1.46.15Zm5-14.86v.29l-.58-.15.15-.15.29-.44.44.15Zm.15,3.06-.87-.29.29-.44ZM13.61,41l.15-.29.58.58Zm.58,5.39,1.46-.29h.58L13.47,47Zm6.7-8.89.29-1.31V38l-3.2.15Zm-1.6-1.31.15-.44.44.15-.44.44Zm5.68,5c.75-.38.4-1-.29-1.89l1.89-.58.73.29a1.42,1.42,0,0,0-.58,2.33C25.79,41.49,25.58,41.66,25,41.17Zm.15,3.06-.87.29.29-.73Zm2.62,29c.8.43,1,.31.87,1.31l-1.46-.15C27.68,74,27.77,74.22,27.74,73.22Zm5-4.66L32,68.27l-.29.29v-.44l.58-1,.44,1.46,1,.15-.73.44C32.37,69,32.84,69.19,32.69,68.56Zm.15-15.44-.44.44-.73-.15-.29-1.17Zm-1.31-1,.15-.73.44.15-.44.58Zm2.19-17.63V34l.58.29Zm.15,11.65c-.45.09-.42-.12-.44-.15Zm.58-10.92.58-.15c-.09.11,0,.68-.73.29ZM39,40.88c-1.22.07-.82.1-1.46.87l-.73-.29-.15-.15c1.48-.61,1.25-1.88,2-2.48l-.29,1.75C38.95,40.9,38.69,40.28,39,40.88Zm-.29-3.5.15-.44.73-.58.58.73-.87.73ZM39.83,42c-.67,0-.19-.17-.87.29l.44-.87Zm-.15-2.19.44-.29C40,40.06,40.21,39.82,39.69,39.86Zm6.85,32.48.29,1.17h-.58l-.87.15Zm-.73-2.48.58.15-.44.15Zm3.35,2.33.87.15v.29l-.15.15H48Zm-.73-1.46V70.6l.87-.87V71Zm3.21-33.5.15-.87.87.73-.15.15Zm.73,8c-.61,0-.18.36-.73-.15Zm.87-21.41-.29-.58h.58Zm.15,3.93-.29.73v-.73Zm-.29-2.62-.29.44-.87-.15.44-.15.15-.44Zm-.87,4.08-.44.29.15-.29Zm.73,8.16c.71.13.57.49.87-.44l.29,1-1.6.44Zm1.6,6.7c-.88,0-.59.37-.87-.44h1.17Zm.15,2.48-.44-.15h-.44l.15-.29.58-.29Zm-1.31-4.37h.29l.29.15Zm.73-2.91.15-.29.44.15Zm-.87,10.63c-.6.05-.26,0-.58-.15Zm.29,2.33h.58c-.61,1.19-.6,1.62-.44,1.89l-1.75.29v-.15ZM52.39,57.1l0,.09-.26.09.29-.18.55-1.65L54.4,55h.29A15.69,15.69,0,0,1,52.39,57.1Zm2.3,1H54l.15-.29ZM52.8,62.44V63h-.44Zm-.44-1.75v.73C51.9,61,52,61.19,52.36,60.69Zm-.15-1.75v-.58l.58-.15Zm0,5.24-.29.29L51.78,64Zm-.29,5.54-.73.44.44-.44Zm-.44,2.62c-.32,0-.78.16-.44-.15Zm-.29,3.79.15-.29.73.15.15.58H50.32Zm-.73,2.33.87.73c-.4.31-1.88,1.25-2.77.73l.15-.29Zm-1.89,26.95.87.44-.15.58-1,.15C48.74,105.83,48.66,106.24,48.57,105.41Zm1.31,1.31h.58l-.58.58-1.46.44Zm.29-2.62c-.05-.83.21-.45-.44-1.31l-2.33.15c1-.35,1.25-.05,1.75-1l2.62,1.6Zm-1.89,3.5c-.49.32-.17.41-.58,0Zm-2.62,1.17h-.15l.15-.44c-.23-.86-.13-1,.44-1.75l1,.29C46.07,107.54,47,108.22,45.66,108.76Zm.29,1.31-.58-.15v-.29ZM41.29,94.92h.44c.56-.72.52-.48,1.46-.87l.29.58A3.52,3.52,0,0,1,41.29,94.92Zm2.18,4.37c-.29.43,0,.55-.44.29l.15-.29Zm-.87,2-.44.15-.15-.15.15-.87Zm-1,4.08c-1.61.22-2.41.35-2.91,1.31l-.58-1,2.91-.58-.15-1.31.87.44Zm1.6.29v1c-1,.24-2.24.46-2.48-.29Zm-2.91,1.6h-.44c-.29-.15-.15.15-.29-.15Zm-5-.29,1.6-1.31c.4.52.22.26.15,1.31Zm.58,1-.29.58-.29-.58ZM33,97l1.31-.87C34.13,96.73,34.08,96.83,33,97Zm1.17,1.17c-.57-.24-.74,0-.44-.44Zm-5.54,2.77.29.29C28.5,101.13,28.81,101.12,28.62,100.89Zm.15-.73-.58-.29.44-.44c.43-.37,2-.7,2.33-2.33h.73L31.09,99C30.27,99,28.9,98.93,28.76,100.16ZM13.9,78.61c.44.63-.39,1.29-.87,1.75l-.58.44-.15-.58Zm-3.35.73L10.7,79c.64-.09.75.19,1.31-.58l.44.44C11.83,79.19,11.39,79.58,10.55,79.34Zm3.93-20,.73.15c-.51.64-.19.47-.15,1.46l-1,.29Zm-.15-2.62v-.87l.29.58Zm2.19-2c-.76.46-.61.63-1,0Zm-.87-4.22.44-.29.29.58-.29.15Zm7,10.78.29.29c-.73.56-.91.68-1.46,0Zm-1.17-3.79.73.44-.29.15Zm2.62,3.79L24.54,63l-2.62.87-.58-.44C22.83,62.54,24,63.4,24.1,61.27Zm1.6-8.74-.15-.44.44-.44Zm.87,2.33c.65.14-.32.66-.58,1.17l-.29-.87Zm.15,4.81.15,1.17-2.19.44v-.15Zm-.58,7.43c.49.92-.26,1.73-1.31,1.46l.15-.44Zm-.29-1.6.29-.58.29.29Zm0,4.37.29-.58C26.19,69.68,26.41,69.54,25.85,69.87Zm-.29.15L25,69.72l.29-.15Zm-.87-3.35.44.44C24.56,66.85,25,67.17,24.68,66.66Zm0-.58-.15-.29.15-.29h.58Zm-1.6-.87-.29-.58c.56-.22,1.1-.16,1.31-1.17l1,1Zm.29,1.6c.36.71-.71,1.46-1.46.73A1.32,1.32,0,0,0,23.37,66.81Zm-1.89-.15v-.58l1.31-.29C23.16,66.43,22.33,66.49,21.48,66.66Zm.58,2.62c-.73,0-.1-.11-.58.44l-.29-.15H21l.29-.87Zm-.87-3.93-.73-.44h.87ZM17.4,75l.15.29C17.22,75.23,17.49,75.28,17.4,75Zm-1.31-2.18.73-.73h.87Zm.29,4.81c.48.35.36.08.44.87l-.58-.15-.29-.15.58-.29Zm.58,1,1.31.15v.15l-2.33.44Zm.29,1.75.73.58v.15c-.73-.33-.53-.11-1.17-.15Zm.58,1.6.73.44V83.7l-.44.29-.58-.44Zm.73,5.54v-.44l.73,1.17-1-.44Zm0-10.05.44.15C18.56,77.73,18.55,77.64,18.56,77.44Zm.58,3.06L20,78.75C20.31,79.58,20.5,80.32,19.15,80.5Zm.15-4.22L18,76.42l1.46-1.6.58.73Zm-1.6-4.37A2.84,2.84,0,0,0,19,70.74l.44,1A1.66,1.66,0,0,1,17.69,71.91ZM16.23,61l.73.87-1.31.29.29-.29C15.89,61.07,15.68,61.64,16.23,61Zm-.73-1.6.15-.44.44.44Zm.87,5.83.87-.44-.15,1.75-.29.15-.58-.58-.15-.29.73-.44Zm.87-3.64L19,60.69h.29l-1.17.87.73,1.75c.68-.07.87-.26.87,1.31l-.29.15-1.89.15v-.29l1-1.17L18.27,63l-1,.58C17.18,62.82,17.74,62.49,17.25,61.56Zm3.06.44-.73.73-.29-.58Zm-.44-1.75.58-.29.44.87C20.11,60.84,20.08,61.17,19.88,60.25Zm.58,6.41-.29.73L19.58,67l-.15-.29Zm-3.64,1,.87-1.17c.76.35.87.1,1.31,1l-.15.15L16.53,68Zm1.89.29c.79,0,.56.2,1.17-.58l.44,1.17-.15.15L18,69Zm.44,2.62-.58-.44L20,69.43l1,.29Zm1-17,.29-.44.73-.44-.29,1Zm.73-3.93-1.46.29h-.15L21,47.58h.58Zm-1.46,2,.29.87-1.31.15ZM19,48.6h-.44l-.15-.44.15-.15Zm-.29-3.2.29.15C18.76,45.76,18.71,45.4,18.71,45.4ZM19,41.75c-.73.35-.52.16-1-.29l1,.15Zm-.87,14c0,.29-.09.21-.29,0Zm.44,1.6-.87.87v-1ZM18,59.53l.87-.58.15.87-2,.44-.15-.15.87-.87-1-.29.29-.58.44-.15Zm-1.6-3.21,1-.58C17.33,55.88,17.27,56.5,16.38,56.32Zm-.73,1.17.44.29-.29.44-1,.15Zm-.87-7.87.58.29C14.72,50.05,14.78,50.27,14.78,49.62Zm.29-.73c-.58-.57-.34-.25-.29-.87l.44.73Zm-.58,13.55-1,.29c-.1-.52-.12-.11.29-.44Zm.73,2.62.58.44-.15.15-1.46-.29Zm-.87,3.64-1,.44-.15-.58.58-.73Zm1.75,1.17L14.78,70v-.58l.73-.73.29.73a6,6,0,0,0,1.89-.58L17.4,71,14.49,72.2,14,71.61l2.18-1.17Zm-.44,4.52.15.44H14.49l.87-1,.15.15C15.87,74.22,15.54,74,15.65,74.38Zm-.15-.87-1-.44v-.15l.73-.29.58.73Zm-1,2.48h1l-.44.15-1.46.29Zm.73,4.81v.44l-.58.15Zm-1.31-3.2.73-.87.29.73Zm-.44-4.52v-.29l.44.58ZM13,85.16,13.76,84l.44.15.15.58-1.75.73Zm1.31,2.62.44.44-.73.29ZM14.63,86h-.15l.15-.58h.44l.15.15ZM15.21,82l1.17.29-.29.15C15.41,82.37,15.07,82.65,15.21,82ZM18,84.87a3.59,3.59,0,0,1-1.46,2.62l-.15-.15-.58-.87C17.15,86.23,17.36,85.6,18,84.87Zm-.87,4.52h1l-.29.87-.58,1.17L16.53,91A1.51,1.51,0,0,0,17.11,89.39Zm.73,5.1h.87l-.15.87C17.53,95.06,17.91,95.43,17.84,94.48Zm.29-1.89.73-1.46.87.73C19.11,92.55,19.12,92.47,18.13,92.59Zm1.46-2-.73-.44,1-.29h.44Zm.15-1.46.29-.44-.15-.15h.44Zm0-4.52h.58l.15.58Zm.73,3.35.29.15-.15.58h-.15Zm-.15-10.78.29-.58C20.75,76.87,20.95,77,20.31,77.15Zm-1.75-4.08.29-.15c1.36-.57,1.09-1.14,2-2h.29C21.58,71.47,20.29,73.74,18.56,73.07ZM21.48,85l.44.15-.87.15Zm0-14.13c1.51-1,1.15-1.31,2.48-2.48.2.54-.45.8-.73,1.46l.58-.15v.87l-.44.29Zm1.46,1.17h-.87l.58-.29Zm-.29,6.26c-.66-.43-.51-.18-.58-.87ZM22.5,79c.59.29.1.15-.29.58Zm.29,4.52.29.15L22.5,84Zm.15-2.91,1.75-1,.58.15-1.6,1.17Zm1-7.72.73.29-.29.44-.29-.29C23.76,73.05,24.06,73.37,24,72.93Zm1.17,2.48.87.29v.58H23.81l.73-.44.73.15Zm-.44,11.51.73.15-.15.29-1,.29Zm-1-4.81,1.17-.73V83.7Zm1.6-2.77.58-.58c.23.5.42,1-.15,1.46h-.15Zm.87,5.1.15-.44.58.15c-.43.49-.56.64-1.31.44Zm.44-3.35.15-.29.58.29-.29.29ZM27,85l1.17.44-1.75.29Zm.15-8.59V77l-1.46.15v-.58l.87.29.15-1.17.73.15ZM25.85,75l.15-.58.15.73ZM25,77.59c-.39-.12-.46.08-.29-.29Zm-.58,1.17-.73.44-.15-.29.29-.44Zm-.29-4.37.15,1-1-.29V75ZM23.23,83H24l-.73.73.15-.58Zm1,11.36c.28.36.34.37,0,.87l-.44-.15-.44-.29ZM23.52,91l.15-1.31H24Zm.73,1.17,1-1,.73.44V92A1.7,1.7,0,0,1,24.25,92.15Zm1.46-1.89-.29-.58.87.44Zm-.29-1.6.15-.29,1.17-.87L27,88.66l1,.87.44-.58h.29c-.39.7.1.3-.73.58l-1.31-.29.29-.58Zm3.79-7.28.15.29C29,81.64,29.29,81.69,29.2,81.37Zm-.29-.29.29-.29.29.58Zm.29,9.47.73-1.17.29,1.46-.29.15-.87.29-.15-.15Zm2-3.64.29.44-1.75.29.73-.44.44-.73Zm-.29-6.7.29-.44C31.46,80.25,31.19,80.1,30.95,80.21Zm1.17-1.46-.58-.44.15-.15h.73ZM33,84.29l-.58-.15-.44.44V84l.44-.44Zm-.87,4.22H30.8l.58-.29Zm-2.48,6.7,1.31-1.75-.15,1.46Zm.73,1-1.31.15,1-.44ZM29.2,97l.44.44-1,.44.29-.58Zm-.87-5.68-.58.73H27.6l-.87-.58.58-.29V90.7ZM27,92.88l.15-.29.58.15-.29.44-1,.15Zm1.6.87s-.16.58-1,.15Zm.15,1.17c-.06.33.11.07-.29.58l-.73-.15Zm2.77.73.58-.73-.29,1-.15-.15Zm-.73-3.5.58-1,.87.29C31.74,92.26,31.82,92.35,30.8,92.15Zm1-2.48h.87C32,90.22,32.49,90.21,31.82,89.68Zm.73-1.46.29-.73.58.44v.29l-.44.44Zm2-16.75.29.29C34.48,71.66,34.83,71.77,34.59,71.47Zm0,2.91c-.21-.62,0-.11-.58-.29l-.15-.15.44-.44.44-.73A1.69,1.69,0,0,1,34.59,74.38Zm-.29-4.66v-.15l.87-1,.73.15ZM36.19,78l.29-.15-.58.58Zm-.44-3.2.15-.87v.87Zm.58-2.62h.58l-.29.87h-.15ZM37.21,75h.58v.73l-.44.15-.44-.44Zm0-2.18a2.34,2.34,0,0,0,1-1.46l1.31.58-.15.29Zm-.58-7.57,1.17-.29h.44C37.6,65.54,37.15,65.57,36.63,65.21Zm1.17,2.91c.47-1,.51-.37,0-1.31l1,.44-.15.87ZM38.23,64,36,64.19l.15-.29c.88-.2,1.13-.15,1.46-.87l.15-.15.58.87Zm-1.75,2.18.44.29-.29.44-1.31.29.29-.58Zm-.87,12.53L35,78.9v-.44l.15.15Zm-.29,2,.07,0a3.33,3.33,0,0,1,2-.85l.44-1.46.73.44c-.37,1.77-1.66,1.42-3.14,1.87l-.05,0,.42.85-1.89.58v-.58a2.81,2.81,0,0,0,1.47-.85Zm8.89-1.46v-1l.58,1.6-.15.29-2.33.15Zm-1.31-2.62h1.17v.15C42.9,77.07,43.31,77.56,42.89,76.71Zm2.48-1,.58.87H44.78Zm-.15-.87.73.15-.58.15Zm.44,2.91v.15c-.48,0-1.44.32-1-.29ZM41.87,79l.87-1.6.15,1Zm1,2.77.73.73c-1-.07-.78.3-1.75.87l-.15-.29ZM40.41,92.88c-.65.23-.69.13-1.17-.58Zm-1.17-4.66.15.15.15.58h-.15Zm.87-1.75a5.45,5.45,0,0,0-1-1.6l1.17-.58A1.59,1.59,0,0,1,40.12,86.47Zm.15,17.33-2.48.44.29-.15c.69-.13.59-.39,1.17-1.17C39.62,103.52,39.37,103.39,40.27,103.81Zm-.44-3.2.29-.44c.14-.47.36-.24.73-1.17l.58.73-1,.58Zm-3.5,2.77-.15-.58c1-.46.49-.24,1.46-1.17.55.7.77,1,.58,1.75v.15C37.27,102.79,37.35,103.42,36.34,103.37ZM39,82.54l1.17-1.17C40.69,82.22,40.05,82,39,82.54Zm1.46.87.44-.29h.44l-1,.73Zm1,9.76.15.15.29.73h-.15l-1.17-.44Zm-.73-4.52H41C40.86,88.69,40.9,88.88,40.71,88.66Zm.73,3.93.15-.73,1.6-.58v.44Zm1.46-2.48A2.76,2.76,0,0,1,41,90c1.31-.6.77-.63,1.46-1.6l.73.15Zm-.58-5.83c-.14,0-.1.22-.29,0Zm0,1.6-1.6.29.44-.58ZM41.14,77.3c-.78.27-.3.42-1,0l.15-.15.73-.29.44.73Zm-.44,1.46c-.49.31-.16.4-.58,0Zm-1.17-1V77.3l.15.15.44.15Zm-.73-1,.29-.58.44.87Zm.44,3.79,1,.29v.44l-1.46-.44Zm-1,19.08-.15-.44.44-.29C39,99.48,38.94,99.25,38.23,99.58ZM35.17,93l.29-.29c.33-1,.83-.29,1.17-1.46l1.31.15v.15l-.15.44Zm.73,3.5.29-.73C36.71,96.2,36.44,96.06,35.9,96.52Zm-2.77-5.39.29-.44C33.31,90.92,33.63,91,33.13,91.13ZM34,93.32,33,93v-.29Zm-1-3.64.15-.73c.73.29.5.27.73-.29.81.3.78.06,1.17.87Zm3.2-7.87.87.58-.15.58c-.54.57-.28,0-.29.73-1.17-.39-1.39,0-2.48,0l.15-.29,2.48-.73C36.14,82.11,36.2,82.75,36.19,81.81Zm0,4.22-1.89.44.73-.73Zm-1.46,1.89,1.89-1.6.87.44A3.78,3.78,0,0,1,34.73,87.93Zm2.48,7.43.73-.44.58.15-.44.73H36.92Zm1.6-9.91c-.74,0-.42.05-.73-.15h.73ZM34.59,85v.15l-1.31.58.58-1.17Zm-.73,9v-.29l.58.15Zm.87,5,.15.58-.44-.44Zm-.87-7.57-.15-.15c.82-1,1.69-.87,1.89-1.75l.29-.44L36.48,91Zm1.31,1.89.73.73-.29.15C34.8,93.65,34.72,94,35.17,93.32ZM35.61,97l.29.15c-.12.51,0,.31-.58.29l-.15-.15Zm.15,1.46,1.17-1h.87l-.44,1.46-1.75-.15Zm.44,1.46.44,2h-.87Zm.73,5.24v-.44l.29-.44Zm.58,2.62c.21-.41,0-.2.58-.58l.44.15-1.31.73Zm3.35-6.12.58-.29.29.15-.87.29Zm.44-3.93-2-.87.87-.73c.95.69.48,1.19,1.6.73v.58Zm1.89-10.63L43,86.33l.73-1c.58.47.05.92.29,1.75Zm1.31,4.81h-.58c0-.86-.26-.77.15-1.6Zm-.29-2.33.29-.44.29.15Zm-.58,8.16.29.15-.15.58h-.15Zm.44,2.91.73-.29-.44.87-.44-.29Zm0-4.81.29-.73.58.44v.29Zm.73-10.63.44-.15.73-.44c-.55-.45-.89-.58-1.89-.29l.73-1,1.46,1,.29-.87L47,84.72Zm1.46-4.08v-.73l.29.29ZM49,74.24l.73,1.17-.15.15-1.46.15Zm-1.31.15.44-.44.58.44Zm.87,3.79V77h.58c0,1-.79,2.56-2.33,1.75Zm.87,8h.29l-.15.73v-.44Zm.15-.58-.15-.29.73.15Zm.15-1.46,1-1.31.29,1-.15.29ZM47,83.41l.15-.29,1.6-.87c.64.2.65-.11,1,.73Zm1.31,14.71.44-.29.87.15v.15Zm1.17,1.31c-.53,0-.2-.13-.44-.29Zm-3.2-1.89a3.81,3.81,0,0,0,1.46-1.6c.6.45.56.39.58,1.46Zm.58,2.48-.44-.58.58-.87A1,1,0,0,1,46.82,100Zm1.31-13.26-1.31.73.15-.58Zm-.58-1V84.43h.73l.15.15-.15,1.17Zm0,8.16L47,94l.29-.58Zm1.31.87c-1.28-.36-.33,0-1.46.29L48,93.9l1,.58ZM47,81.37h.44c-.59.11-.23.34-.58-.15Zm-1.89,6.12h.73v.44h-.15C44.94,87.81,44.93,88.11,45.08,87.49Zm1.75.44.29.87-1.46.15Zm-.44,17.48-.15-.29,1-1.46C47.68,104.46,47.71,105.5,46.39,105.41Zm3.79-13-.29-.29H49.3l.15-1.31C50.64,91.22,50.51,91.34,50.17,92.44Zm.44-5.24.73.15-.29.29-1,.44Zm-3.2-15.73.15-.58h.73Zm.44,5.83-1.31.87-.44-.73.58-.15.29-.44Zm-3.35-5-.73.15-.15-.29,1.46-1,.29,1Zm-.44,2.48c-.28-.84-.39-.2-.15-.87l.58,1-.15.15c-.93.58-2.66,1.09-3.35.58Zm-1.17-3.64-1,.15,1.17-1C43.38,70.89,43.22,70.36,42.89,71.18Zm-.15,3.06v.15c-1,.26-1.22.5-1.75.15-.18-.1-2.69-.64-2.77-.73.79-.22,2-.59,2.19-1.46l.15-.15c.59.6.42.92.58,1.89C42.13,74.11,42.23,73.72,42.74,74.24Zm-2.91-3.79.29-.58,1,.15Zm0-1.31L38.67,69v-.44l.15-.29.73.58.58-.73.44.15Zm-.44-4.22-.58-.44h.73v.44ZM39,66.23l.15.29-.44-.29Zm-2-5.53.73-.73-.29-.44L35,59.67l2.19-.87,2,1.75ZM33.86,58.8l2.33-1.89.44.15c-.73.84-.83,1.41-1.89,1.6Zm.73,2.62-1,.15.15-.44h.73Zm2.62-9.32.73-.73c.52.86-.05.91.73,1.75L40,52.39v.73h-.58l-1.31.44C37.71,52.76,37.92,52.57,37.21,52.1Zm1.89-4.22,1,.29-.73,1.31-.15-.15Zm.73,2.19.44.15C40,50.25,39.49,50.37,39.83,50.06Zm-.73-3.93.15-.29L40.41,45v.87Zm-1.31-.87L39,43.79,39.83,45Zm-1-7.57.58,1.46-1-.15C36.82,38,36.1,38.42,36.77,37.68Zm.87,0,.29-.44C38,37.73,38.11,37.44,37.65,37.68Zm-.44-1L36,36.51l1.75-1,.29.29Zm-1.46,2.19.44.15-.44.44Zm-.15-.29-.44-.29v-.44l.58.58ZM37.06,34l-.29-.58h.29Zm-.15,1-.44.29-.29-.15L36,34.76l.29-.44Zm-1.6-.44-.73-.87,1.6.29Zm-.44,3.93c-.24.22-.29-.15-.29-.15ZM35,44.08l.87-.44.73.58-1.75.29Zm2,5.68.29-.44.87.15-1.6.44Zm0,5.1.15,1.46c-.64-.61-.52-.55-1.46-.29l.15-.58Zm-2-.15-2.48.73-.29-.58c2-1.29,1.82-1.18,2.77-2.33h.58l.29.15C35.22,53.53,35.07,53.39,35,54.72Zm-2.48,5.1.58,1L33,61l-.87-.44Zm.87,3.2,2.48-.87-.29-1.46,1,.29L36,62.88c-1.37.18-1.91.19-2.77.87l-.15-.29ZM35,64.33l-.15,1.46-3.2,1.31-.29-.44a18.68,18.68,0,0,0,3.5-2Zm-3.2,5v.29l-.73.44-.15-.73ZM34,70.45l-.44.15c-.48.22-.19.17-.44-.29ZM34.59,77l.44.87L32.69,78Zm-3.2.29L33,76C33.22,76.74,32.78,77.09,31.38,77.3ZM32,74.67l-.58-.29.87.15Zm-.15.87-.44.44h-.44l-.15-.58.58-.29ZM30.8,83l.15.44c-.61-.51-1-.45-.87-1l-.15-.29C30.63,82.33,31.13,82.5,30.8,83Zm-1.46-7.87-.29-.29.29-.15.73-.58C30.19,74.92,30.44,74.79,29.34,75.11Zm.58,3.79-1.6.29.15-.29.58-.15Zm-1-.58L27.74,78l.87-.44.44.58Zm-2.62-5.39L25,73.07l.73-1.17-.29-.44-2.33.73.58-.73c1-.22,1-.4,1.46-1l.73,1,.58.15c.35-.79-.12-.67,1-.73C26.59,71.58,26.58,71.86,26.28,72.93Zm0-6.41h.44C26.31,66.65,26.51,66.89,26.28,66.52Zm-.73-3.2c.3.66.37.43.15,1.17L25,63.31l.29-1.17C26,62,26.49,62,27,61.27l.29.73C26.29,62.26,26,62.15,25.56,63.31Zm.15-13.26L27,48.6l.44,2.19C26.92,49.68,27.06,49.78,25.7,50.06Zm-.44,9.76h-.15l-2.19.44-.29-.15,1.17-.58-.58-1,.15-.29c1.33.81.93,1,2,1Zm-1.46-2.48.44.15c-.78.33-.51.4-1.17,0Zm-.44-1.75.87.15v.15C23.35,56.06,23.68,56,23.37,55.59Zm1.89,1.31-.73.29.15-.44Zm-.15-4.37v-.87l.15.87ZM22.35,55l-.58.15-.58-.44c1-.41,1.31-.46,1.46-1.31h-.44c.73-.42.52.28,1-.73h1.31C23.56,53.3,22.72,53.76,22.35,55Zm0-3.21c.57-1.08-.08-.76.29-1.75l.73,1.17Zm0-4.66h.58C22.5,47.53,22.44,47.2,22.35,47.14Zm-2-.29v-.73c.92.25.78.37,1.31-.44l.73.58Zm.29-4.37-.44.15-.29-.73.29-.73,1,1ZM20,45l.58.15v.15l-1.17.15-.15-.15ZM19,32.43,17.55,33c-.18-.83.53-.76,1.17-1.17H19ZM19,34l-.44-.29h.29Zm-1.46.73c.83.52.47,0,.44.87H16.67l.15-.29Zm.58,1.46.73.29a2.41,2.41,0,0,1-2.33.44ZM17.4,42c0,.41-.42,2.17-1.6,1.46l.15-.29ZM14.19,56.76l.15.29h-1.6Zm-.87-3.93.15-.58.44.29Zm.15,10.34.44.73-.58.44c-.65-.08-.06-.1-.58.29L12.59,64Zm0,7.14.15-.44.29-.44.44.15v.58l-.87.15v.15l-1-.29ZM10,73.36l.87,1.31-.15.15-.58.15.15-.44C9.73,73.92,9.77,74.1,10,73.36Zm.29,0L10,72.93l.58-.58,1,.29v.15Zm1-2h-2c1.07-.51.7-.17,1.31-.87,1.13.09.63-.08,1,.58Zm1,.58.15-.29.73.44-1.46.44-.15-.15Zm-.15-14.42h.15l-.58.15-.15-.29Zm-.58-5.83.44-.29.44.15Zm.87,13-.15.15-.44-.44ZM12,67.54l.29.15-.58-.15Zm-.15,1.75-1.17.44.73-.58ZM11,68h-.87l1-.73.44.44Zm-1.17-1.6.73-.44.15.87Zm.15,3.2-1.89.73.15-.58c1.08-.12,1-.15,1.46-.87ZM7.79,67.83h.29l.29.29Zm-.15-3.64.29.87-.58-.15Zm.58,8.3.44.87-1-.15Zm1,4.66v.29l-.58.15-.29-1.17Zm-.44-2.48h.73C8.92,75.07,9.41,75.08,8.81,74.67Zm2.91.15.73,1.31L13,76c.27-.78-.27-.33.44-.87l-.29,1-1.6.73.29-1.31L9.39,76Zm-1.46,2.77c.59.48.46.21.44,1h-1Zm1.46,10.49,1.31-1v1.31Zm.44,1.75-.29.15-.15-.58Zm1,1.6L14,92.59H12.74Zm2.77,0,.15-.29.29.29-.44.44-.44-.29Zm.29,2.33h.29l-.29.58Zm0,1.46.58.29h-.73Zm1,1.75-.15.15-.44-.44Zm-.58-3.79h-.44l.44-.44.58-.44.44.29Zm2.77,4.22L19,98l-.15-.15Zm.44,2.19c.39.62.27.4-.44.58Zm-.15-6,1.17-1,.73.87Zm1,7.14.58.15-1.17.29Zm.29-3.5.44-.44.87.73-.44.44C21.55,97.19,20.67,97.37,21,97.25Zm0-6,1-.44h.44Zm1.31-1.75-2,.15.29-.15,1.31-.58.58.29Zm-.15-2.77.15-.58,1.31-.73c.26,1,.21.93-.58,1C22.72,86.83,22.82,87,22.21,86.76Zm1.17,10.78V98l-.29-.58ZM23.08,99l1.17-.29.29-1.6.58.29L24.83,99l-1.89.87ZM25,101.33l.44.15-.73.29Zm-.58-5.24.44-.15,1-.87c.64.49.42.12.44,1H24.39Zm1.46,3.64h.87l-.29.44h-1Zm.44-2.62,1.17-.87.44.15.29.44Zm2.62,6.12h.58l-.58,2.91-.15.15-1.17-1C28.34,104.76,28.23,104.26,28.91,103.22Zm-.29,3.2,1,.29-.29.29-1.75.73Zm1.17,1.89c-.46,0-.09.15-.44-.15Zm-1.17-6.12-.15-.29,1.31-.87.58,1Zm1.6.73,1-.73.73.58-.44.15c-.24.49-.75.72-1.6.58Zm.44,2.77.44,1.17-.29.44-.58-.15-.15-.15Zm3.35-.29a1.82,1.82,0,0,0,1.17-1.6l.44.15c.07.78-.35.62,0,1.46l-.73.44L34,105.7Zm.58,6.85.29.29C34.47,112.53,34.34,112.58,34.59,112.25Zm.15-.87-.15-.44.44.15Zm.15-2.48.87.44.15.44-.15.15-.58-.29Zm1,3.06.44.15s-.29,1.3-.29,1.46l-.87.29Zm1.6-2.77,1.31-1,1.17.44Zm1.75.73.44-.29.87.44-1.6.29Zm3.64-5.39-.44-.58.87.15.15.29Zm-1.6-1,.44-.58,2.18-1.31.73,1.31Zm3.64-.29h.73l.15.58-.87.15-.44-.44Zm.15,1.89.87.58-1.31.29-.29-.73Zm0,6.26-.58.29.15-.44v-.44Zm1.31.58.44.15-2.33.44Zm-.44,1.31.29.29.44.15-.73.44h-.29l-.15-.58Zm1.6-1.46c.65.28.58.42.58,1.31l-.15.15-.73-.15Zm1.31-.15,1.46-1.17.58.44-.15.15Zm1.31,10.92v-.44l.29,1-.87-.15v-.15Zm-.44,1.6,1,.15-1.31.29Zm-.15-14.27c1,.22.93-.05,1.46.73C50.41,110.35,49.44,110.5,49.59,109.92Zm1.6-13.26L51,96.23l.44-.29.44.29ZM51,92.3h.73v.58l-.58.15v-.58Zm-.87-2.77,2.48-1.17.29.15Zm1.46-9,.58-.73.15.44.29.29Zm1.17-5.68-.73.15,1.46-1V73.8l-1.89-.15,1.31-.29,1,.44-.15.29Zm-.29-5.1v-1l1.46.73Zm.87-1.17.15-.29.58-.29c.6.44.25,0,.15.73Zm1-7,.29-.44.15.73c.22.84-.54.81-1.31,1l.15-.58,1.17-.44Zm-.58,2.18.44.29-.58.58L53.38,64Zm.44,6.85L55.56,70l.44.15C55.5,70.74,55,71,54.25,70.6Zm.58,1.6c-.58.53-.08.28-.73.29l.44-.29Zm.44-44.43H54l.58-.73h.87Zm.15,1.75h-.29L55,28.79Zm-.58.73-.58.15v-.73ZM56,26.31l.29.29.29.87h-.87C56.31,26.83,56.1,27.05,56,26.31Zm2.33-10.92c.45.44-.13,1.22-.29,1.46l-.15-.29Zm-.44-1.75.44.29C57.81,14,58.15,14,57.89,13.64Zm.87,6.41-.29,1H57ZM57,12.18l.15-.29C57.37,12.14,57.28,12.38,57,12.18Zm.15,1-.73-.58.44.29Zm-.58,2.48L56,16l.29-.87Zm-.15,3.79.73.44c-.56.36-.14.31-.73.15H56Zm3.35,1.46c1,.45.67,0,.44,1l-3.2.44C58,22.09,59.32,21.8,59.79,20.92Zm0-3.2v.73c-.79-.5-1,0-.58-.73Zm-.44-2.48.29-.44h.44l-.58.58Zm.15,3.93c-.44.15-.33-.07-.44-.15Zm1.75,9.61h.58l-.58,1.75-.44-.44C61.14,29.06,60.62,29.49,61.24,28.79ZM63,39c-.74-.41-.42-.16-.44-.73l.87.15v2c-1.34.1-2,.59-2.77.29l-.44.29C60.93,40.09,62.35,40.45,63,39ZM62.41,28.5l.58.15C62.43,28.84,62.39,28.7,62.41,28.5Zm.44-9.32.44.73-.15.15h-.58Zm-.15-.87.44.44H63Zm-.29-1.17L62.7,17l.87-.44.29.58-.58.15Zm1-10.2V6.36l.15.58Zm.73,15.15v-.44c.75.39.56.15.58.87l-.87-.15Zm2.19,3.35.44.73h-.15l-1.89.44ZM65.18,19h.87C65.27,19.42,65.22,19.06,65.18,19Zm2,8.45.73-1.17.29.15h.44l-.44.44Zm.44,1.17c-.42.13-.21.37-.44,0Zm0-5.24-.15.15-.73-.15.44-.87.44.44Zm1.78,6.23v7.23c.56-.7.33-.37.55-1.52.59,1,1,.39.87,1.46-.7-.1-.63,0-1.42.24V52.32l.11-.07.29,1-.4-.1v1.26l1.28-.58c0,.13-.52,1.21-1.28,1.06v.84l.11.28-.11.17v3.35l.11-.17c.66.35.63.23.15.73l-.26-.17v4.17l1,.08-.15.15-.84.26v.82h4.87v1.29l.77-.77a2,2,0,0,1,.29,1.75,2,2,0,0,0-1.07-.26V69H72.75v.14l-1.6.15.34-.28H65.85v-.52l-.53,1-.58-.29c0-.78.12-.79-1.17-.58l.44-.29.73-.73c.56.64.51.73,1.11.62V65.4l-.68-.34.58-.44.09.07V62.19l-.38,0a3.13,3.13,0,0,0,.38-.2V60l-.24.29c-.47-.34,0-.2-.58,0l.58.44-1.17.15v-1l.87-.44h.53V54l-.24.24H64.45l1.4-.38v-.75l-.09-.32h.09V46.67l-.68-.11.58-.44.09.19V42l-.24.08.24-.32v-4l-.09.07.09-.19v-8Zm.84-9.58.44.73-.29-.29C70.08,20.18,70.38,20.5,70.27,20.05ZM77,17l.44.15-1,.87.15-.73Zm-.44-2.48.58.15C76.54,14.82,76.75,14.65,76.54,14.52Zm2.19,11.8c.79.36.15.49.87,0v.44c-.69.56-1.71.12-2.33,1.46l-.15-.58-.58-.29C77.79,27.28,78.2,27.08,78.72,26.31Zm-1-7.57v-.58l.29.15Zm2.62,4.37h.44l.15.58-1.6.15ZM79.74,19h.87C80,19.41,80.43,19.37,79.74,19Zm2.91,9.47-.15.29-.44.15Zm-.58-3.93v-.29l.44.44Zm3.71,5.07,2.13,2.07v.52l.28.21h-.28V40.6l.13.13-.13.13V43l.28.64-.28.06v3.14l.13-.43.29,1.6-.15.15L87.92,48v8.31l.13.13-.13,0v1.16l.71.12-.58.58-.13-.13v2.11l.28-.09.87-.73c.2.62.37.38-.29.87l-.86.14v2.12l.28-1.1L88.48,64h-.57v2.89L85.79,69H84.21a3,3,0,0,0-.1.43L82.68,69H79l-2.13-2.07V63.75l-1.6.73.15-.58.73-.73.73.24v-1.7l-.87.87.15-2.18.73-.22V56.61L76.54,56l.29.29v-2c-.7.16-1.39.18-1.6-.14l1.6-.93v-.6c-.41.06-.91.16-1.6.23,1-1.13.12-.68.73-2l.87.25V49.24l-2,.82.29-.44a4.82,4.82,0,0,0,1.75-.78V44.95c-.28,0-.16-.24,0-1V41.07l-1.75.25c.26-1,.26-.41-.15-1.46l1.89,1V31.7L79,29.63Zm-2.4-1h-.15l-.15-.44Zm-.15-7.28.29.29C83.15,21.49,83,21.71,83.24,21.36Zm1-1.31.29-.58C84.72,20.1,84.39,19.91,84.26,20.05Zm2,3.35v.15L85,23.69l.44-.44Zm-.73-1.31h.29l.15.29Zm2.33-2.33.44.15-.73,1H86.15Zm-1.75-3.2.44-.15c.55.5.32.15-.15.73H86.3Zm3.93,6v.15l-1.17-.15Zm-1-1.46.44-.29c.41.39.27-.11.44.73Zm1.17,5-.15-.15c0-.64,0-.41-.44-1.17h.73l.15.15Zm.29,1c-.24.22-.29-.15-.29-.15Zm.58,35-1.17-.44.44-1.89,1,.15C90.71,60.42,91,60.86,91.1,62ZM93,69.58l.29.87c-.55.5-.75.88-1.6.73A14.32,14.32,0,0,0,93,69.58Zm-1.31-2.91.44-.58.15.15.58.73-.44.29Zm6.12,6.41.15.44-2.18,1Zm-1.75-2,.44.58-.15.15Zm3.79.29h.58l-.15.58c-.68.26-.7.42-1.6.15Zm-1.17-3.2,1-.87.44.58Zm4.66,18.35s-1.51,2.65-2.18,2.77l-1.46.29-.15-.15C101.27,88.29,101.69,87.4,103.34,86.47Zm-1.89-13.55.29.15C101.5,73.29,101.45,72.93,101.45,72.93Zm1.6-3.5-1,.44.29-.44.58-.29.15.15Zm.58,1v.87h-1.17v-.15Zm-1.31,2.91a3.36,3.36,0,0,1,1.46.44l-1.75.29.44-.58ZM106.25,67h.29l-.29.44a1.12,1.12,0,0,1-1.31.29l.44-.29Zm-.87-6.55.29-.44C105.86,60.45,105.44,60.32,105.38,60.4Zm5.54-23.74c.62.54-.27.75-.44.87Zm-.44-.73v-.15l.44-.58Zm0,3.06-.29-.15.15-1.17A1.07,1.07,0,0,1,110.48,39Zm.44,2.19.44,2.19a3.06,3.06,0,0,0-2,.15C109.95,42.74,110.87,42.07,110.91,41.17Zm7.43,10.34.29-.58.44.87-.15.15,1.46.29-.15.29-1,.58-1.17-.29c.49-.29.61.13.87-.87Zm-.29-3.06.29-.29.29.44Zm4.81.44c-.1-.31-.13-.12.15-.29l.15-.29h.58v.58Zm.87,4.08-.15,1.75-.29-.15-.15-.15C123.45,53.46,123.17,53.58,123.73,53Zm-.87-3.79v1.17l-.29.15C122.43,49.91,122.4,50,122.86,49.18ZM124,57.78h.29v.73l-1.6-.29Zm1,4.66-.15.73c-1.27-.12-2.16,1.16-3.5.44l.29-.15c1.06-.47,2.36-.24,2.48-1.6l.15-.15Zm-.29-7L125,55l.73.15Zm-7.43,33.65v-.15a4.62,4.62,0,0,0,3.35-2c.44.55.42.7.29,1.6A5.94,5.94,0,0,1,117.32,89.09Zm3.06,3.64-.15.15-.58-.44h.58Zm-2.19-.87,1.17-.87C119.3,91.61,119.4,91.64,118.2,91.86Zm-.44,1.89.15-1,.29.29C118.36,93.61,118.34,93.58,117.76,93.76Zm0,.87h-.29V94Zm-4.66,7.87v-.73a3.62,3.62,0,0,0,2.33-1.89l.15,1.89Zm1.6.29-.44.29.15-.29Zm-1.31.58-.58-.58.29-.15Zm1.89-3.64-.15-.29.73.15Zm-1.46-2.33.58-.29.15-.29.87.29v.15ZM109,93.17l.87.29C109.4,93.71,109.13,94,109,93.17Zm.87,2.48-.58-.15.29-.44Zm-3.06,16.61h-.15l-.73-.44.29-.15C107,112,106.39,111.63,106.84,112.25Zm-1.75-1.17.58-1c.67.36.22-.09.58.58Zm-6-4.66.58-.29.44.29-.29.44Zm.15,4.52c-.52,0-.62.2-.44-.29Zm.87-7.43-.87.29.29-.58Zm-.44-4.81.87.73C99.72,99,99.85,99,99.7,98.71Zm.29,11.22.44,1-1-.15Zm.29-6.26v-1.6l.87-.15-.44,1.6Zm-2-7,2.48-.58v-1c.9.4.71.59,1.17,1.31ZM96.49,76.13l.29.44-.58.15Zm-.15-.44.15-.29.15.44Zm.58,4.81v1.31l-.73.29-.44-.44v-.29Zm-.15,2.62c-.48.33-.58,0-.58,0Zm.29,1.75.15.44v.44L95.91,86Zm.29,1.75h.29l-.44.58Zm-.15-7.87.29-.58.44.15Zm1,14.57v1l-1.17-.73ZM99,95.07c-.86.13-.41.46-.87-.29Zm.58-18.94.29-.44h.29Zm.87,6h.29l-.58.44Zm-.58-2.48H98.68l.87-.58ZM102,92.3c.23.39.43.4.15.87l-2.33.58-.15-.15v-.15Zm-1.17-1.75h.44C100.88,90.68,101.09,90.92,100.86,90.55Zm7.28-22c-.78.43-.46.11-.87-.15ZM107.42,60l-.87.15L106.4,60l-.15-.58.87-1C107.71,58.9,107.56,59,107.42,60Zm.58-9c.76.47.55,1.42.29,2h-.44C107.93,51.88,107.44,51.84,108,50.93Zm-.58-1.6.87.29c-.73.15-.47.24-1-.15ZM107.27,48l.29-.44.29.58Zm.73-1.6.44.15C108,46.71,108.24,46.52,108,46.42Zm3.2,7.87.73,1.46L110.77,55l.58-.29Zm5.24-2.18-.15.15-.44-.58h.58Zm.15,2.18.15.44h-.15l-.58-.44Zm-.44,2.33.44,1.17v.15l-.73.29-1-.44-.15-.15C116.16,57.28,115.33,57.37,116.16,56.61Zm4.22,7.87h-.58l-.29-.87C120.28,63.94,120.28,63.81,120.38,64.48Zm-.44-2.33h.58C120,62.47,120.36,62.56,119.95,62.15Zm.29,5.24c.53.45.36.2.29,1l-1.75.15.73-.73C120.28,67.8,119.86,68.15,120.24,67.39ZM121,67l1.75-1.17v-1l.87,1.31-.58.44Zm1,2-.58.44h-.15V69l.44-.29Zm.44-3.79-1.6.29v-.29l.29-.44,1.31.29Zm.73,5.1.15-1.17c.76.42.63.3.58,1.17v.15l-3.06.73-.29-.15Zm.58-1.89.73.15-.58.29Zm1,10.63-1,.29.44-.87.58.15Zm.15,2.77.15,1.6-.44-.15-1.31-.15.15-.15C124.19,82.65,124.38,82.76,124.9,81.81Zm-1.75-3.93-2.18.44v-.15l.15-.29,2-2C123.3,76,122.92,77.18,123.15,77.88Zm-1.31,3.06v.15l-.15-.15-.29-.44v-.73h.29Zm-2.18-8.3,1.31-.58v.58Zm.73,6.55h-.15v-.87Zm-6.55,11.07,1.89-1.31.29.29V90Zm2,2.91.29.29C115.75,93.45,115.72,93.56,115.87,93.17Zm-.87-.44-.15-1.6C115.31,91.44,115.34,91.77,115,92.74ZM112.81,94l-.29.58-.29-.15.29-1.6,1.75-.73c.93.27-.45.73-1.31.73C112.71,93.88,113.12,93.51,112.81,94Zm-4.22-5.39-.44.15v-.29Zm-.15-7.87.44-.29.29.58Zm-.15,9,.73.29c-.63.37-.71.46-1.17,0Zm.58,1.89V93l-.73-.44.29-.29ZM108,84.43c-.51-.29-.52.17-1.6,0l1-.73C108.19,84,108.05,83.56,108,84.43Zm-.29,15.29-.44.87H107l.29-.87Zm-.15-1.17.73-.15C108.93,98.8,107.91,98.82,107.56,98.56Zm-1.31-2.62.15-.29,1-.29.15,1.31Zm-1.46-8.16.15-.44,1.46-.29C106.26,87.4,106,87.93,104.8,87.78Zm.15,3.06.44-.29C105.63,91,105.06,90.85,104.94,90.84Zm.29-11.36V78.9l.15-.15c.79.42.49,0,.73,1Zm1.31,3.06-.44-.15V82.1Zm-.44.29c-.28.66-.18.65-1.31.87l.15-.58Zm.29,6.55H106l-.15-.44Zm.44,2,.44.15L106,92Zm-.15,1.46.15-.29L107,93l-.87.15Zm.58,2,.15-.15.29.58ZM107,76.28l.58.58C106.76,76.67,107.22,77.06,107,76.28Zm.44-1.6,2.19-1.6.29-.15.29.29Zm1.46-15.73.73.15v1.17l-1.17.15-.15-.29C109,59.5,109,59.76,108.88,58.94Zm-.15-1.17h.73v.44h-.58Zm2.91.29.29,1-.58-.15c-.56-.25-.18-.06-.44-.44C111.76,58.54,111,58.65,111.64,58.07Zm-.15,5.24h.15L111.5,62a1.43,1.43,0,0,1,.44,1.75l-.87.15-.58-.58Zm2.18,2.48.44-.44C114.09,65.64,114.29,65.68,113.68,65.79Zm1.6-1.31c.14.67,0,.85-.58,1.17h-.15v-.29ZM115,63.6l1.17-.15C116.13,63.8,115.64,64.27,115,63.6ZM114.85,67c-.37.27-.26,0-.44-.15Zm.87,1.31-.15,1.17-1.17.15Zm.87,10.05-1.75-.15-.15-.58c.86-.35.76-.26,1-.87l1,.15C116.48,77.55,116.13,77.35,116.6,78.32Zm-2.91,5.39c1.28.93,1.13.71,2.19.73v.87l-.29.15H114C114.48,84.38,113.8,84.43,113.68,83.7Zm-2.77-15.88.15-.44,1.17-.44.44,1C111.74,67.56,111.73,67.95,110.91,67.83Zm1,1-.58.58-.15-.58ZM109.31,67l-.15-.44c.83-.4.92-.44,1.31-1.31l.58.58-.29.58.15.58Zm.44,2.62-.29-.44.15-.15Zm-.29.15c-.87.05-.55.54-1-.44Zm-1.17-2.62.15-.29.44.15Zm5.24.87.44.58-1.6.29Zm.29,8.3.73.15.15.15-.29.15Zm1.46,3.79-.15.73-.87-.15Zm-2-6,1.31-.58.44.15Zm.29.87-.15.58-.44-.73Zm.15-1.89v-.44l.29-.44.29.73Zm-.44,3.5h.44l-1,.73C113,76.67,112.81,77,113.25,76.57ZM115.14,71c-.5.55-.69.57-1.31.29l.44-.15.15-.29Zm-1.6-6.55-1.75.44c.75-.74,1.12-.12,1.6-1.17l.29-.29C114,64.14,114,63.7,113.54,64.48Zm-3.21-4.08.15-.29.15.44ZM109.6,52l1-.44.15.58Zm.29,2.77.44.44C109.73,55,109.77,55.32,109.89,54.72Zm.44,7.14-1.89.44v-1Zm-1.17,3.2a.82.82,0,0,1-1.17.58ZM109,70.74l1.6.15a3,3,0,0,1,.44-1.46,1.57,1.57,0,0,1,.15,1.46,4.67,4.67,0,0,1-2.91.44Zm2.62,2.48c.32.38.23.26.29,1.31l-2.48.87C110.26,74,111,74.54,111.64,73.22Zm1.89,6.41-.87.44c-.64-.79-1.28-1-1.46-1.31Zm-.73,6.85.58.44-1,.73-.15-.15.44-.15C112.47,86.49,112.33,87.22,112.81,86.47Zm.44-.29-.29-.73h.44Zm-.15-4.52-.73.29.15-.44Zm-.87,1.6c-.9-.24-.41,0-.73-.58Zm.73.87c.45.47-.58.53-1,.44Zm1.17,3.5v-.87l.44,1.89-.87.73-1.46-.58Zm-.58,3.06.29.87-.44.15-.15-.15ZM115,86.62c.87-.4,1.34-.21,1.89-1.17v1ZM116.6,79l.15-.29L117,79Zm1.6,5,.58.15-1,.87-.87-.58Zm-.15-1c.59-.6.78-.43.44-1.31.62.52.51.59.44,1.6Zm.44-11.07h-.15l.44-.29v-.44l.44.44Zm-.29-4.66.73-.44-.29.87ZM119.65,84c-.43.17-.27,0-.44-.15Zm-.29-8.3.15-.29.29.29Zm.58,3.64.29.15-.58.29Zm.58,1.75.73.15-.73.15Zm.73-6.26.15.15.44.15-.29.44Zm-3.64-9.91,1-.73h.58Zm.15,8.59.44.15-.44,1.17-1.17-.15C117.68,74.37,117.25,74.24,117.76,73.51Zm-.29-7.43-.29-.73.29.29Zm-.15,1.17-.15.15-.44-.58Zm0,1.89a2,2,0,0,1-.29,2C115,70.88,115.94,70.66,117.32,69.14Zm-1-2.48h-.87l.87-.73C116.67,66.57,116.64,66,116.3,66.66ZM116.16,62c-.85,0-.34.31-.73-.44l.87.15Zm-3.06-1.89-.29-.44-.29-.58Zm-.15-2,1-.29h.73l-.73.44Zm1.17,2.19h1l-.15.87-3.06.58-.15-.29Zm.15-15,.58-.87.15,1.31Zm-2,14.42-.29.29-.29-.15.15-.58.58.29ZM111.5,53l.15.15.44.15C111.43,53.3,111.63,53.1,111.5,53Zm-2.33-2-.29.15v-.15c.78-.81,1.52-.53,1.6-1.75.48.4.34.61.44,1.46Zm.73,3.06-.29.29-.87-.15.15-1.17C109.77,53.23,109.61,53.15,109.89,54Zm-.29,1.17v.15l-1.46-.15Zm-.87,18.06-1.46-.73C108.42,72.79,108.47,72.43,108.73,73.22Zm-2.33-1-.15-.15-.44.15-.44.29v-.58l.87.15v-.58l.58-.44.44.73Zm-.15,3.2.29.29a1.27,1.27,0,0,1-1.6.29Zm-1.17,5.24c-.25.21,0,.18-.29.15l-.15-.15Zm0,6h-.73l-.29-.73Zm-.58,2.19-.29,1.6H102.9Zm-1,4.66c.33.56-.41.45-.87.58Zm-.73,3.21c.56.7-.75.46-.87.44Zm-2.62-2.48v.15l-.44.58H99l.44-.44.15-.29Zm-.73-1.75.44-.29.15-.29.44.15Zm-.29-11.8c-.28.09,0,.15-.29,0Zm.15,6.26-1-.29.44-.58Zm2,13.26.44-.73C101.8,100.1,102,99.72,101.3,100.16Zm.29,7.28c-.26.1-.12.23-.29,0Zm.29-1.17c-.08,0-.12.24-.29,0ZM103,109.2h-.15c-1-.15-.78.21-1.17-.58C102.78,108.82,102.58,108.72,103,109.2Zm-1-4.52v-.87h.58l.29.15Zm.73-3.2h-.15l-.29-.58.58-.73C103.24,100.62,103,100.51,102.76,101.48Zm1,3.79.15.87H103Zm-.15-6.85v-.15l.87-.73.58.15C104.69,98.35,104.43,98.57,103.63,98.42Zm1-3.5.87-1.17-.15,1.31Zm1,1.31c-.46,0-.09.07-.44-.15Zm.29,11.51.73.15C106,108.05,106.3,108.19,106,107.74Zm-.58-4.08.29-1.6h1.89l1.6-1.17c.14.55-.52,1-1.6,1.17v1.17l-.87-.73v1.17Zm2-6.26.87-.44,1,.15Zm2-7.28.44-1.17c.68.43.63.37.58,1.17Zm-.15-5v-.58l.73.73ZM108,78.46c.63-.34,2.07-.6,2.48-1.6l-.73-.58c1.4,0,.44.1,1.46-.44l-.29,2Zm2.77-.29.15.29C110.67,78.67,110.84,78.37,110.77,78.17Zm1.17,8c-.94.34-.84.22-1.17-.15Zm-.15.87.29.29h-.73Zm.29,1.89.58.44-.29.44h-.29Zm.44,2.62.44-.15-.87.44.29-.44Zm-.15,7.28.29.44-.58-.15v-.29Zm0-2.77.44-1.17H114l.15,1.46-.29-.87Zm2.91-.73-.15-.15.44-.58,1.17.15Zm.58-4.22.58-.58.44.15Zm.29-3.5v-.15l2.91-1.31C119,87.23,117.81,87.84,116.16,87.64ZM121.4,91c.41.66.19,1.35-1,1.6Zm0-5.83.44-.44.15-.29.15.87Zm.73,4.22v-.44h.58l.15.73h-1Zm-.58-6.85.15-.73c.71.24.69.27,1.31-.15l.58.44v.29Zm2,2.77.29,1-.73.29Zm.15-.44.29-.58.44.15Zm1.89,1.89v.29l-1,.29-.29-.73ZM125,84.43l.29-.58.15.15h.58Zm.29-8.74.29-.87h.44v.44Zm-1.46-3.79,1.6-.87.29.58Zm.58-5H125l.29.15C124.5,67.38,124.92,67.21,124.46,67Zm-1.31-7.14.58.15C123.16,60.13,123.49,60.31,123.15,59.82ZM123,61.27l.15.29-1.31.58-1.31-1-1.75.29-.15,1.89-1.89.44c1-1,1.49-4.24,3.64-2.77l.44-2.19c.93.57.5,1.44.73,2.62Zm-4.52-4.81h1.6C119.18,56.94,118.95,57,118.49,56.47Zm1.6,1.31-.44.87.15-.73Zm-.58.87.15,1.17-2.19.29-.29.44-.29-.15v-.58l.58.29Zm.58-10.34c-1.21-.09-.94.27-1.17-.44l.73-.73Zm-.29-1.46.58-.73h.29l.29.15Zm1.6,6.41.44.29-1.46.29Zm-3.21,5.39-1.89.58-.15-.15v-.15l1.75-.87Zm-1.31-4.22.44-.44v.73Zm.44-5.1-.29-.58.29-.15.58.15Zm0,.73-1.89.87-.15-.58,1.31-.44Zm-2.18-1.46c.38.6.33.36.15,1.17Zm-.15-2,.73-.44.15-.44.44.58-.29.15Zm.87-3.06c-.43-.3-.17.07-.29-.44l.15.15.44.15ZM114,39.28l.15-.29,1.89-.44A1.44,1.44,0,0,1,114,39.28Zm.29,1-.15.58H114l-.29-.73Zm.15,15.44-1,1.17h-.58Zm-2,0h-.15l.15-.58.29-.15.29.73Zm-.29-4.08-.58-.29.44-.15.15-.44.29.73Zm-.29-4.22-.58.29-.15-.15.44-2.19C112.17,45.66,111.91,46.67,111.79,47.44Zm-1.6-1.6.15-.29.44.58-.29.29h-1.17Zm-.73,3.5-.44.29-.58-.15L109,49l.15-.29Zm-2.18-3.79,1.17-.87.58.15Zm.15-3.35.29.29C107.3,42.43,107.61,42.41,107.42,42.19Zm1,2.33.15-.73C108.78,44.51,108.68,44,108.44,44.52Zm-.29-3.5-1,.29.87-1.17.44.44Zm-1.46-1.31v-.29l.58.44Zm.58,13,.58.44-.29.15-1.46-.15Zm-1,2.77.29.29H106Zm.15,5.68,1,.15v.15l-1.31.58-.29-.15.15-.58ZM106,63.6h-.15V62.44Zm-.44,9.76-.15,1.46-1,.15.29-.73Zm-1.17-2.48-.15-.29.44-.73.29,1Zm0,7.14-.87.44-.58-.15-.15-.15V78l.87-1h.58Zm-1,2.62-.73-.15.58-.29Zm-.73-5.39.58-.44h.29L103,76.71ZM102.9,85l.87.15-1.89.87Zm-2.48-9.32.44.29C100.34,76,100.66,75.86,100.43,75.69ZM99,74.24l.58.58h-.15l-.87.15.15-.29Zm-.58-3.64v-.73C98.72,70.5,98.75,70,98.39,70.6Zm.15,11.51.44.73-1.17-.15.58-.29Zm-.87-9.32v-.29l.73.15Zm-.73-1.6.87-.87.15,1Zm-2-.29-.15-.58L94.6,70h1.17ZM95,75.55c.42.63.45.27,0,.87l.29-.44C95,75.6,95.12,76.07,95,75.55Zm-.29-4.08.29.73H94l.15-.73Zm-.44,9.32c-.44.14-.2,0-.44-.15Zm-.44,6.85.73-.73C94.36,87.47,94.86,87.74,93.87,87.64Zm.29,23-.29.29c.16-.2.24-.28.28-.33l-.14-.54c.11.44.2.45.14.54Zm-.87-3.5v-1.6h1Zm-1.89,10.2.29.29C91.28,117.59,91.53,117.74,91.4,117.35ZM88.92,114l.15-.29L91,112.55l-.15,1.31Zm1.6,2.18-.58.29-.15-.15.29-.58Zm-3.2,2.91H86l.44-.87,1.75,1.17.15.29-1.75.58.87-.58ZM85.57,122l.58-.44C86.45,122.24,86.27,122.1,85.57,122Zm-5.68-6.85.58-.73.87.15Zm1.31,1.6-.57.13v0h-.07l-.66.15v-.15h.66l.08,0,.14-.27ZM78.29,93.32,77,93.17l.29-.29.58-1.46h.73C77.94,92.28,77.79,92.4,78.29,93.32Zm-2.77-6.26.44.44C75.39,87.24,75.87,87.57,75.52,87.06ZM75.37,83l.29.29L75.08,83Zm-.58-2.91.44.44C74.63,80.35,74.66,80.67,74.79,80.06Zm1,5.54.15-.29.15.44Zm.29,7.28.58.29-.87.29Zm1,1.46c-.49.32-.17.41-.58,0Zm0-6.7h.44l.15.58h-.44Zm1.31,1.46.58.44-.15.15C78.2,89.38,77.89,89.58,78.43,89.09Zm.44-1,.58.44v.29C78.84,88.54,79,88.77,78.87,88.08Zm.15-.15-.15-.29c1-.93,2.95-.2,2.48-1.17l.15-.15.29,1A4.24,4.24,0,0,0,79,87.93ZM88.77,56l.29.15-.73.44Zm-.58-3.93.44-.58c.47.57.17,0,.15.73ZM88,50.35l2-.73.29.58Zm.73-11.51h-.44l-.15-.29Zm-.44-3.35v-.58l.15.58Zm.44,6.26.44-.15.87-.73.29.73Zm.44,2.91-.73-.58.44-.29Zm-.87-3.93.44-.29C89.1,40.86,88.52,40.74,88.34,40.73Zm.44,1.17c-.73.13-.31.47-.73-.15Zm-.44,3.93v.58h-.15L88,45.83Zm2,5.24H91l.15.44Zm.15,2.62-.15.15-1-.73.73-1.31Zm-1.17,3.5h.58C89.75,57.33,89,57.62,89.36,57.19ZM89.5,61c.59.39.36.48-.29.87ZM93.44,93.9l.58-.15-.15.87Zm.44,2.91-.73.15h-.58l1-.73Zm-.58-17.62h.29v.44h-.15v-.29Zm.15,16-.29.29-1.46.29,1-.73.58.15Zm-6.26,20.54.58.15v.44h-.87l.44-.15Zm0-2.77.29.15v.44Zm.73,5.54h-.44l-.29-.58Zm-1-5.68s2.28-.88,2.62-1.6v1.46Zm-4.22-7.28.44-.29S83.17,105.68,82.66,105.55Zm.15,5.83-.58-.15.29-.58Zm.15-7.57-1.46.73,1.75-1.75C83.35,103.52,83.51,103.19,82.95,103.81ZM84.7,88.08l.29.15c.33,1.61,1.08.42,1.31,2.48-.37.1-2.51,1.35-2.62,1.31.6-1.19.84-.94,1.75-1.46V89.39l-.15-.15-2.77.29Zm-1.75-2.77.15-.29h.29C83.18,85.5,83.46,85.2,82.95,85.31ZM87,77l-.15,2.19,1.17.15v.29l-1.17.44c-.14-1.12-.85-1-2.09-.8-.2.2-.41.39-.62.56s-.06.41.08,1l-1.31.44-.15-.58a4.34,4.34,0,0,0,1.37-.82c0-.13.12-.27.23-.49l.39-.07a4.82,4.82,0,0,0,1.5-2.41Zm-.58-1.6.87-.44.15.44Zm2.91,1.17-.29.15.15-.87.15-.29Zm1,.29.44.15-.73.87-.73-.29Zm-1,3.35.58.29-1.46.58-.15-.44ZM91,81.52l.44.58c-1.74.45-2.92,0-3.2,2.19L87.32,84c.94-1,.6-.75.73-1.89A3.08,3.08,0,0,0,91,81.52Zm-.87,6.41-.15-.29V87.2l1.17-.15.29.15ZM92,90.55l-.15.44-.87.15-.15-.29V90ZM86.3,98.13l.44.44C86.17,98.31,86.65,98.64,86.3,98.13ZM85,98.71l.29-.44C85.17,98.49,85.48,98.53,85,98.71Zm-.44-1.31.58-.29.44.15Zm.29-3.5h-.29l-.29-.58.73-.73Zm.73,7.14.29.73v.15l-.73.15-.29-.15-.29-.87Zm-.15-4.66.29-.73.87.15Zm1.17-2-.58.15-.15-.15.44-.58Zm-.29-5.39-.44-.73.29.15C86.74,88.5,86.35,88.35,86.3,88.95Zm-.15-2L87,86l.58.87C86.88,87.52,86.5,87.38,86.15,86.91Zm.44-4.22.15-.15.29.73h-.29Zm1.89,4.37.44.73h-.58l-1.46.15Zm-.15,15.15h.73l-.73.29ZM88.19,99l.44.15-.29.44Zm-.44-2.19-.15-.44c.83-.22.73,0,1.17-.87l.73.15-.15.87ZM88.34,94l.58-.44.58.15Zm-.44-4.81.29.87-.15.15-.87-.58Zm0,16.31c.68.15,0,.48-.29.73Zm.15-1-.15-.44.87-1.46.15,1.31Zm.29,4.81h.29l.29.15-.58.29Zm0-3.93c.85-.3.77,0,1.17-1l.87.58-.29.73C89.08,105.74,88.91,105.92,88.34,105.41Zm1.46-6.26v-.44l.44.15Zm-.15-9.32-.58-.58,1.31-.87C90.45,89.21,90.16,89.24,89.65,89.82Zm-1.17-4.37.73-1.17.73.15Zm-.58-4.52.44.15C88,81.13,87.56,81.25,87.9,80.94Zm-2.77,1.46-.58-.29.44-1,.44.15.29.15Zm.29,3.5-.58.29.29-.58ZM84.11,82l-.29.73-.29-.15Zm-.73,9.76c-.24-.2-.35,0-.15-.44Zm.15.58.29.15-.44.73-1-.15ZM84,96.67l-.73.29-.87-.15v-.29l.44-.15,1-.87Zm-1.31-1-.87-.29v-.15l.58-.44Zm-.15,3.64.15-.29.29.29-.87.15Zm.73,1c.73-.46.78-.3,1-1.31v1.46Zm.87,6.41.44.15-.58.44Zm0-1.17v-1.17l1,.44-.15.29Zm.87.58h1l-1.17.73Zm1,1.31h.29l-.58.58-.15-.29Zm-.15-3.21.73-.15.58.15-.58.29-.29.44Zm1.6,2.33.58.73-1.17.15Zm-.29,2,.73-.29-.73.44Zm2.19,1.89.73.15-.58.29Zm.15-1.89-.58-.29v-.44l.58-1.31,1,.15C89.13,107.37,89.67,107.49,89.5,108.61Zm1.17,0,.15.44-.29-.15Zm-.58-15.44.15-.15.73-.87c.5.53.27.82.15,1.6Zm1.17.73.44.44H91Zm.87,3.64-.44.15-.15-.44Zm.29-6.12h.44v.44Zm-.29-4.66h.44l.58-1C93.41,86.53,92.92,87,92.12,86.76ZM92,82.54l1,.15-.29.44Zm.73-7.14-.15-.73.15-.15.29.87Zm-.58,3.35v-.58l-.44.44.58-1.89A1.42,1.42,0,0,1,92.12,78.75Zm-.29,7.14L89.94,86l.58-.29.87-.58.29.15ZM91,81.23v-.29l.44.44Zm.15-1,.15-.29S91.24,80.5,91.1,80.21Zm0-8.74h0l-.42.73-.29-.87.71.14.16-.29ZM91,74.67c-.61-.83-.52-.88-1.6-1.31l1-.44Zm-.87-9.47-.73-.15.44-.44v-.29Zm-.73,3.64.58-.58.15.87h-1v-.29Zm0,4.08-1.75-.15c.63-.56.8-.49,1-1.17C89.28,72.06,88.93,72.07,89.36,72.93Zm-1.17.87-.58.87v.15h-.15l-.15-1ZM86.3,71l1-1.17.15,1.46Zm.15,2.48c.24.64.06,1-1.31,1.17ZM84.7,72.34l-.58-.73,1.17-.44.44.58ZM84.55,77c.3-.83-.15-.67.87-1-.22,1.45-.72,1.85-2.19,1.89V76L84,77.15ZM83.38,72.2l-.15.58h-.73l.29-.73Zm-.29-1.6v-.44l.73.15Zm-.44,7.28-.15.44h-.15Zm.15,4.52h.58l-1.17.29Zm-.29,7.28h-.29l-.15-.15Zm-.44-5.54c-.6,0-.15.27-.58-.15ZM80.47,76l.44-.15.58-1.17.58,1-.15.15Zm.44-3.06.58-.29h.29l.29.15Zm-.87-1,.87-2,.58,1.75Zm.44,1.75-.15,1.17h-.44Zm-1.6-1.31c-.17-.63.05-.4.58-.87l.44.58Zm1.17,5,1.17-.44-.15,2L79.89,79Zm1.31,6h-.73l.15-.44.44.15Zm-.73-3.35c0,.29.17.33-.44.44Zm0,10.63.44.44-.58.44.29-.29Zm.58,1,.29.58-1,.58Zm-.87-3.35h1.17C80.82,88.83,80.9,88.79,80.33,88.22Zm.73,7.43h.87L80,96.38l-.15-.15ZM81.49,97c-.33.29-.36,0-.44,0Zm-.58,1.6.58-.87.15,1.17-.15.15-1.17-.44Zm.15,8c-1,.32-.59.1-1-.15l.73-.15Zm.87.44h.58l.15.58-.15.15-2,.15Zm1,7.28h.44v1L81.93,115Zm0-5.54.73-1,.15.73Zm.73,8.16.15.15.44.15-.58.15Zm0-4.81.29-.44.29,1Zm1,1.6c-.33.29-.36,0-.44,0Zm.73-.87.29,1.17-1-.15Zm0-2.48.87-.73.73.44Zm.73,1,.73.15.87-1.17c.11.75.19.38-.15,1l-.73.15-.73.15Zm2,3.35.58.44h-.44Zm.58,4.22.58.58-.73-.15Zm2-20.39L92,98l.15.44Zm.44,13.55L91,112l.44-.58Zm-.15-1.75.58-.58.15.58Zm.15-3.79.87-1,.29.58Zm2,3.93.29.15c-.48.49-.49.62-1.31.44Zm.15-11.07-.15-.15v-.15l.15-.15.73-.29h.29ZM94,83.85l-.44-.15v-.15l.58-.29.15-.29.29.29ZM93.14,73.8l.15-.29.58.15Zm-.29-1.17-.44.58-.29-.29c-.56-.25-.09.07-.44-.44ZM92,73.8l.15-.44c0,.67.22.78-.58.58Zm-1.31-4.08.44-.15.15-.29.29.58Zm-.29-2,.29.29C90.26,67.91,90.32,68.09,90.38,67.68ZM89.5,58.8l2.19-1.31.44.87Zm2.33-1.31v-.87l.44.44ZM91,54.57V54c.84.24.57,0,1,.58Zm0-4.52c-.19-.81-.16-.68.15-1.31l.44,1Zm-1.31-2.91L89.5,47l.29-.29,1.46-.44C91.16,46.43,90.15,47.34,89.65,47.14Zm-.44-1.31,1.31-1.31.29,1Zm.73-5.54.29-.29.44.15Zm.15-2.91-.58.15-.15-.73.29.15.44-.15Zm-2-4.22,1.46-.73.44.29C89.15,33.3,88.71,33.6,88,33.16Zm1-4.81.15-.15v.58Zm0,1.31-.15.29-.44.15Zm-.73-4.81h-.73l-.29-.58,1.31-.58Zm-.15,6.7L88,31.7l-.44-.44L87.9,31Zm-.73-9.91.73.29-.73.44.15-.44Zm.29-7.28.58.15C88.1,14.55,87.34,14.8,87.75,14.37Zm.15,2.33-.15-1.31C88.13,16,88.23,16.06,87.9,16.7Zm-.73,6v.87l-.29-.15v-.73Zm-.29,5H86.3L86.15,27Zm-1.6.44.73.15-.87.58L85,28.64Zm-13,45.3H73l.29.44H72ZM72,70.45h.58l.15-.29C73.36,70.65,72.39,70.56,72,70.45Zm1,1.6c-.32,0,0,0,.15-.29l.58.15-.29.44Zm.44-2,.73-.29C74.31,70.11,74.09,70.5,73.48,70Zm.44,4.52.87-.73c.43.74-.47.79-.58,1.17l-.58-.15Zm.87-1.17.44.15C74.77,73.47,75.14,73.66,74.79,73.36Zm.29-2.77.73-1.17V71l-.15.15Zm.44-2.19L76,68l.29.29-.58.15ZM77,72.34l.29-1.17.44,1.75H75.81Zm.58-3.5.58-.29.44.58v.15Zm.87,4.66.15-.29c.43.59.13.6-.58.44Zm-8-10.34c.5.53.29.15.44.58l-.29.44-.44-1.6,2.62-1.75.73.15v1.46A2.27,2.27,0,0,0,70.42,63.17Zm2.77,0-.29.44-.29-.15L72.9,63Zm-2.48-7.72c.52.38.46.68.44,1.6h-.73C70.94,56.24,70.9,56.21,70.71,55.45Zm-.29-8.74-.29.29.44-.73.73.15Zm-.15,3.06.29-.44C71,49.59,70.47,49.65,70.27,49.77Zm0-2v1h-.15l-.58-.44.58-.29Zm.15,3.35c.83,1,.46,1.19-.29,1.75Zm.73,9.76-.44-.44.73-.87C71.56,60,71.72,60.37,71.15,60.84Zm.29-2.91.58-.29-.44.58Zm-.87.44-.87.29.58-.44ZM74.5,46.27l.44.73-1.17.44-.15-.15Zm-.15-2.48.73.29C74.35,44.25,74.15,44.45,74.35,43.79Zm0,7.72c-1,.25-1.22.22-1.89,1l.29,1.17h-.58L72,53l1.31-1.75Zm.44.87.44.15-1.31.58-.29-.44Zm-2.18,6.55s.07.44-.44.29Zm.29-1.46h.29S73.06,57.73,72.9,57.49Zm.44,5.1.44.44h-.44Zm-.87-7.43.73-1a3.4,3.4,0,0,1,1.17.87Zm2.19.44.73-.73.44.73-1.89.29Zm1.31,1-.73.44v-.58Zm-1.31,1.75.15.73h-.44l-.15-.44Zm-.29-.87V57h.29ZM76,58.94l.44,1.17L74.21,60C75.26,59.67,75.46,59.8,76,58.94Zm-.87,2-.15.73-.15-.58L74.64,61Zm-.58,2,.44-.58.29.15Zm.44,1.46c-.65-.07-.16.17-.58-.29l.44.15Zm.58-18.06.73,1.89h-.87Zm0-3.06.58.44-.15.15C75.28,44.21,75.47,43.72,75.52,43.36ZM75.08,39h.44l-.29.58Zm3.5-9.47-.29.58L78,30l-.29-.58Zm0-1.46h.58C79,28.2,78.18,28.48,78.58,28.06Zm1.75,0v-.58l.29.29Zm.73-2.91L80.62,25l-.15-.29,1,.15Zm-2.62-2.48.87-1,.15,1Zm-.15-4.22.15-.29h.29C78.6,18.67,78.8,18.35,78.29,18.45Zm-.87,8-.87-.73L77.7,26Zm-.73-5.1.58.29C76.63,21.79,77,21.91,76.68,21.36Zm-.15,14.13c.19.82-.06,1.16-.87,1.31ZM74.79,17.87l.73.29C74.74,18.21,75,18,74.79,17.87Zm1.31,2.91-.44-.15-.15-.15Zm-.58,6.41.29.15-.15.73-1.75.29v-.15ZM73.77,24l.73-.58C74.72,23.29,74.64,24,73.77,24Zm.29,2.91c-.32,0-.36.17-.29-.15Zm.29,3.2.29,1-1-.15v-.15Zm1.6,1,.15,1.75L74.35,33Zm-1,5.54.44.15c-.73.39-1.22.6-1.89.29ZM73.77,40.3a1,1,0,0,1-1.46.29l1-.44Zm-.29,4.08L72.9,45l.15-.58ZM73,41.17c-.61.4-.17.47-.73,0Zm.29,8.45.44.15-.29.58-2,.44Zm-2.19,0,.44-.73h.58l.15.58Zm.15-3.35.58-.44.15.44Zm-1.17-.73c.58-.63.69-.23,1-1.17l.58.73Zm.58-16.31-.15-.15.58-.44Zm-.44,2,.29,1c-.95-.31-.61-.14-1-.73Zm-2,40.79-.87.44v-.73l.15-.15Zm-.58-2.33.58-.15.29.15.15.58-.73.15-.15-.15Zm.44,5,.44.15-.58.15Zm0-3.35c.93-.1.55.25,1-.58.35.52.2.82.15,1.46C68.17,72,68.53,72.05,68.09,71.32ZM69,73.07l.58-.15c.65.17,0,.45-.29.73L69,73.51Zm.58-2.91.87.58L70,71Zm.58,3.79.44.44-.29.29C69.83,74.1,70.08,74.57,70.13,73.95Zm.29-.87L71,71.91l.73,1.17Zm-4.52-1.89-.44.44-.15-.87Zm-6.12-16.9-.58-.58.58-.87,1-1.17Zm.58,1.17L59.2,56l.73-.73ZM64.3,36.22,65.47,38l-.29-.29c-.92-.39-.42-.91-1.6-.73Zm-.73-4.37v-.44l.29.58Zm1.17,17.48.58.29C64.67,49.56,64.63,50,64.74,49.33Zm.73,1.75-.73.15.29-.29Zm-.87-5.83.58-.58.58.44-.15.44-.44.29ZM65,35.64v-.58l.44.58Zm-1.31,6.7.73.15-.58.58-.29-.58ZM65,57.19l-1,.29.29-.87.29.15Zm-.15-1.31.58-.44-.15.29Zm-1-2h.29l.29.15Zm0-6.26.29-.44.15,1.17-1.6.87L62,48.89C62.71,48.45,63.86,48.65,63.87,47.58ZM62.7,50.93h.44l-.29.58-1.6.29Zm-1.6-1.75.73.29-.15.15ZM59.79,48h-.15l2.19-1.31.29.15C62.94,46.64,60.56,48,59.79,48ZM61,44.67l1,.15C61.08,45.1,61.47,45.32,61,44.67Zm-.29-1.17,1.46-.73.15.29Zm.15,2.33v.73l-.29-.73Zm-1.89-3.06v-.44L59.5,42l1,.15Zm.29.87.58.15-.29.44C59.05,43.75,59.21,44.3,59.2,43.65ZM61,55l.73-.29.58.87.87.15v.58h-.73l-.15-.73-1.46-.29ZM64,60l-.15.15L63.43,60,61,59.23l.73-.58Zm-2.33,3.79.58-1,1,.29ZM62,65.06h-.44l-.15-.29Zm1-3.93.15-.15h.44l.29.15C63.09,61.53,63.46,61.34,63,61.13Zm1.17,2.19.73.58-.44.44-1-.15C64.37,63.73,63.84,64.17,64.16,63.31Zm1.89-36,.73.15C66.06,27.66,65.93,28.07,66.05,27.33ZM64.45,27l-.15.15-.87-.58Zm-.73.44.58.87-.87.29-.15-.15Zm-4.08-.58-.58-.15v-.15l1.6-.87Zm.29,1.31-.44-.15v-.29Zm-.73-3.5h.29l.15.29ZM61.83,38l.29.58-1,.58-.58-.29Zm-1.6-1.31v-.29h.29C60.39,36.76,60.37,36.5,60.22,36.66Zm.58-1.6-.44-.44h.44ZM62,38l-.15-.44.58-.29Zm-.29-1.89.44.44C61.54,36.28,61.39,36.62,61.68,36.07Zm-1.6-12.53.58-.29L61,23C60.9,23.1,61,23.74,60.08,23.55Zm-1.89,5-.58.15.29-.58ZM62.7,70.3,61,70.45l.29-.73.58-.15Zm-2,7.43.87-.29-.15.87-.87.15Zm.15-2.19,1-1L61,74.09l1.6-.58c.17.7,0,.43-.58,1l.87.58Zm1.31-3.5v-.44c1.36-.86.9-1.46,1.89-2v2.48ZM65,74.24l-.15.44h-.73L64,74.24Zm-.73-1.46v-.29l1-.87c.75,1.19.42,1.36,1.75,2.19l-.73.58A24.7,24.7,0,0,0,64.3,72.78Zm2,2.62-.58.29-.15-.29Zm.87,1.31.44,1.17c-1.11,0-.76-.12-1.31.73H66.2L65.76,78ZM65.91,82.1a1.28,1.28,0,0,0,1.75-.58v1.17C66.73,83,65.83,83,65.91,82.1Zm1,2.91-.44.58L66.34,85l.15-.15Zm.58,9,.15.58-.29-.44Zm0-3.06.29-.73.58,1-.58.15Zm.44-4.37.15-.73.15-.15C68.26,86.31,68.46,86,67.94,86.62Zm1.6,10.92a4.44,4.44,0,0,0,.52-.21l.64-.52c.61-.13-.06.25-.64.52l-.46.38.37,1-1.89-.15a4.7,4.7,0,0,0,1.52-.85ZM69,96.38c.09-.92-.08-.8.29-1.31l.44,1-.15.15Zm3.2-.44L72,95.36h.44Zm.44,1.6H73l-.58.44Zm-.29-.87-.44.44L71.44,97l.44-.58Zm.44,3.06.44.15-.15.73-2,.73-.15-.29C71.62,100.5,72.41,100.62,72.75,99.73Zm1.46,1.17.58.15-.29.73-1.75.73Zm-.73-2.18.29.15h.44C73.73,99,73.22,99.39,73.48,98.71Zm1,7.87.58.15C74.48,106.74,74.93,107,74.5,106.57Zm1,1.75h-.44v-.44Zm-1.17-5.24.29.15C74.41,103.45,74.35,103.08,74.35,103.08Zm.15-3.2h.29C74.52,100,74.74,100,74.5,99.87Zm-1,9.47.29.73H73Zm-.58-3.2.15-1.46c.54.6.43.24.44,1.31Zm-1.17-3.35-.15.15-.44-.58ZM70,95.94l.58-.58.44.29Zm0,5.68.29-.44.44.15Zm.44,1.31-1.17.44-.15-.15.29-.58.44-.29Zm-.29-3.64.15-.29v.87Zm-1.31.87v.15l-.58.29-.15-.58Zm-.73.73.73.87h-.73Zm-.15,7.28-.29.73-.15-.15Zm-.44.87.44,1-.44-.15Zm1,1.89c-.29.07-1.17.45-.73-.15Zm.15,11.22c.47.23.59,0,.29.44l-1.31-.15Zm.29-2.91.29.29C68.84,119.52,68.82,119.63,69,119.25ZM74.21,86l-.87-.29.44-.15.15-.29Zm5.24,31.9-.15.29-.44.29Zm-.87-.87c-.19.14-1,.42-.58,0Zm-1.75-1.17c-.46,0-.09.15-.44-.15Zm.29,3.79.44.15-.73.73h-.15l-.15-.58Zm1.75.58c-.14.94-1.14,1.11-2.19,1.46Zm0,1.89.29.44h-.73Zm.44,1.6.29.29v.15l-.73-.15Zm.87-.15,1.6-1.17c.57.73.38.06.15,1Zm1.46-4.52-.15-.15c.54-.64.53-.49.29-1.31.67.44.39.21.58,1.17Zm.15-2.48.15-.87,1.31.44Zm2.48,5.83-.58.58-.29-.58Zm-.73-1.89.73-.29.58.73-1.17.15Zm0,3.06.15-.29.15.44-.58.15h-.15Zm0,1.75.58-.44.58.15-1.31.87Zm1-3.2.44.29C84.47,122.36,84.9,122.55,84.55,122.16Zm-1.31-3.35.15-.29,2.33-1.17.44.15v.58Zm5.83,4.66.15-.15.29.73-1.89.29C88.63,123.76,88.75,124.07,89.07,123.47Zm.29-.87.15-.44.44-.29h.29Zm-.29-2,1.46-.73.15.87Zm1.46-1.31v-.44l.73.15Zm.73,3.79.73.29-1,.44Zm0-1.31h.44l.15-.44h.29V122Zm.58-6.85.15-.58.44.15.15.29Zm2.33.73v-.87l.58.15Zm.44-11.8a1.74,1.74,0,0,1,.29-1.31C95.09,103.17,95,103.41,94.6,103.81Zm-.44-11.36L95,91l.15,1.46Zm.15-11.8.44-.15.15-.44,1,.44ZM95.91,84c.12.61.19.15-.44.73Zm.29,3.06h.73l-.58,1.89h-.44Zm.29,10.2V97h.29C96.63,97.34,96.89,97.35,96.49,97.25Zm.15,8h-.58l.15-1C96.69,104.6,96.6,104.43,96.64,105.26ZM96.2,99v-.58C96.41,99,96.5,98.5,96.2,99Zm.44,8.74h.44v.44Zm0-6.55.44.58C96.48,101.35,96.9,101.75,96.64,101.18Zm0-7.57h-.15l.15-.87.44.15Zm.44,1.75h.44c-.28.44,0,.53-.44.29ZM97.51,98l1.17.29C98.2,98.37,97,98.61,97.51,98Zm.87,16.17.44-.58c.67.58.44.07.15.87l-.58-.15Zm1.75.58.15-.15.58.15a1.63,1.63,0,0,1-2,1C99.51,115.49,100.34,115.51,100.14,114.73Zm-.73-2-.15-.29,1.31-.58,1,.29Zm6.12-.73.44.44h-.87Zm.29,2.77.87.29-1.31.44Zm.44-1.46,1.31-.15C107.43,113.24,107.14,113.73,106.25,113.27Zm1.17-1.31-.44-.15.29-.44.29-.73V112Zm-.87-2.62.29-.44h.87Zm1-4.08-.58-.58v-.15l1.46-1.17v1.89Zm1,3.5.15-.44.29.87-1-.44Zm.44,3.5.29.87h-.73Zm-.15-4.66.29-.44H110l-.29.44Zm0-1.31.58-1c.84.23.19.33,1,0l-.15.58Zm1-3.35v-.44h.44Zm.29,1h.29C110.51,104.24,110.39,104.16,110.19,104Zm-.87-5.54,1.75-.87.29.58Zm1.75,8h.58l.15.44Zm.15.73c-.65-.06-.19.14-.58-.29ZM111.35,91l-.15-.15.15-.29.58-.29.44.58Zm1.31,9.32,1.31-.87c0,.33.25.54-.87.73l-.44.15c-.51.28-.45,0-.58,0Zm.15,8.59-.29,1-.15-.73Zm-.29-1.17.87.29-.58.15Zm2.48-.58.44.44-.58-.29Zm.15-4.52.87-.44.15.15.44.15Zm0-4.37,1-.58,1,.44-.15.15Zm1.89.58,1-.87.44,1.17-.44-.15h-1.31Zm2.91.29V100l-2.19.29Zm-1.17-2.91,1-1.6.29.15c-.21.62.1.26-.58.73l1.89,1.31-1.31.44C119.77,96.18,120.07,96.44,118.78,96.23Zm2.91,1.31.44.44-.73.15Zm-.29-2.77.29-.15.15.58Zm0-1.17.15-.73.15-.15,1,.44.15.15Zm1.31-1.89c.73.43.22-.09.44.73L123,92Zm0-4.08.15-.44.58.58Zm3.64-11.07.58-.29.29.15Zm.58-3.93.29-.58h.58Zm.15-1.6.58-.29v-.29C128.46,70.43,127.3,71,127.08,71Zm-.15-2.77-.73-.58c.82-.53.69-.22.58-1h.73Zm-2.19-2.77,1.75-.44h.44A2,2,0,0,1,124.75,65.5Zm1.46-9.18.87-1,.29,1ZM128.39,53l.29.73h-.87V53l.29-.15Zm-.29-1,.29-.29.44.15C128.23,52.15,128.72,52.11,128.1,52Zm-.58-2.62h-.15V48.6h.44Zm-.15-4.66c-.16.61,0,.52-.58,1V45.1c.56-.19.19.17.58-.44l-.58-.15v-.58l-.15-.44,1.17-.44h.29C127.9,43.55,127.24,43.46,127.37,44.67ZM126.94,49l.29.15-.73.44-.15-.29Zm.44,1.6-.87.58-.29-.58Zm-.87,1.17-.29-.15.15-.44Zm-.44-3.64-.58-.73.15.15c.56.19.19-.17.58.44Zm.15,3.93c.58-.14,0,.46-.15.58L125,53Zm-.73-3.79c-.92,0-.52.2-.87-.29l.87.15Zm-.58,3.2h-1l.29-.44h.44Zm-2.48-3.79,1.89-1.6.15,1Zm.44,8-.58,1.89-.29.15-1.17-.58c.77-1.16-1-.77,0-1.75l.29.73.44.29Zm-1.17-18.06H121v-.73c.64-.12.22.25.58-.29l.29.29ZM121.11,45l-.15.29-.44.29-.58-.29.44-1.17Zm-1.75-2.48h-.15l1.17-.73C120.52,42.28,119.9,42.47,119.36,42.48Zm.29-1.46.44-.58C120.2,41.15,120.27,40.83,119.65,41Zm.73-2.91L119.8,38l.29-.44h.29Zm-.73-1.6-.73.44.29-1.31.73.44Zm-.58-2.62.73-.29S119.81,34.16,119.07,33.89Zm.29-5.24h.29C119.52,28.67,119.56,28.86,119.36,28.64Zm.15,3.79-.15.15-.87.15-.15-.58.44-.44Zm-.73,12.09h-.15l-.15-.58Zm-2.33.58.29-.73.15.15.44.15Zm.44-1.89L116.45,42H117l.15-.29Zm-.44-7.43.29-.44.29.15Zm0-6.26L115,30.1l1-.73Zm-.29-.87v-.29l.29.44Zm-.87,8.16.29.15c-.42.73-.64.83-1.6,1v-.73C114.67,37.3,114.61,37.22,115.28,36.8Zm-1.89,0-.58-.44,1.31-1.17ZM113.1,42h.44l.29.15-.29.29-.73-.29Zm.58,6.12-.58-.58.44-.44Zm.15,3.5c.16.83.13.56-.15,1.31h-1.46Zm-1.6-7.28c-.49-.43-.25.07-.29-.58l.73.15h.15Zm-.87-8.74,1-1.46A1.24,1.24,0,0,1,111.35,35.64Zm.29-3.21h.29l.29.58C111.43,32.79,111.73,33.21,111.64,32.43Zm-.44-.73h-.15l-.58-1,.44-.87.87.29Zm-.58-3.93-.44-.15-.29-.58V26.9l1-.58Zm-.15,7.28-1.6-.29h.44l.29-.44ZM109,31.7l.58-.15.29.15C109.27,32.08,109.65,32.14,109,31.7Zm-.29.58-.15-.15h.29C108.79,32.33,108.94,32.29,108.73,32.29Zm0-4.52-.58.15-.15-.44ZM107,25.44l-.15-.15.73-.58.58,1Zm.73,1.31-.29.29c-.54-.25-.18.1-.44-.44h.44Zm-1-5.39.87-1C107.74,21.22,107.7,21.21,106.69,21.36Zm.44-4.08-.87-.29.44-.15.58-.58Zm-1.31-.87v-1c.45.71,0,.38.58.87Zm.44,3.5.15-.29c0,.45-.28.87-.58.29Zm0,8s-.5.21-.29,0ZM91,22.09l.29-.58-.15.73Zm0-6.85-.15-.15.15-.29.29-.15Zm-1.31.15.44.29-.73.29Zm1,2.62-.15.58-1,.15c.19-.82-.1-.84-.44-1.31ZM86.15,15l-.29.44L84.11,16l1.46-1Zm-3.79,5.39-.15.15-.58-.15.44-.58C82.67,20,82.27,19.72,82.36,20.34Zm-1.6-1.75L80.33,18l.58.15.15-.44.87.15Zm0-1.75v-.29l.58.15Zm-.29-.73-1-1.17.15-.15.73-.29L80.76,16Zm-3.35-2.48c-.8-.22-.56-.39-.73.44l-.73-.87,1-1.31.29.29C77.28,12.53,77.09,12.68,77.12,13.64Zm-3.2,1.89.15.29-2.33.44v-.15l1.89-.87Zm-1.46,4.37.58.29-1.17.15Zm-.15-1.31.44-.29.15-.44v.73l-.44.15Zm.15,2.62-.58.44v-.73ZM73,26h-.29l-.44-.87,1,.29Zm.15,3.5-1,.44.29-.44.44-.29Zm-1,5.39L73.33,33c1.31,1.66-.19,2-1.6,2Zm0,1.89.15.87h-.58v-.58Zm.44,1.46.58.15.15.15v.15L71.59,39h-.15ZM68.82,15.83,67.07,16c.77-.89,1.71-.76.87-1.75l.87-.44Zm-.87-3.21-.44.29v-.29l-.15-.15Zm-.44-1.89.73.15H67.8Zm-1.17.44,1.17.15C67.14,11.47,66,12,66.34,11.17Zm-1,.58c.37.25-.17,1.15,0,2.19l-.73-.29V13.5ZM64.16,9.27l.29-.87.44,1Zm.73-2.91H64l.15-.29.73.15ZM63.14,5.19h-.73l1.75-.87h.29C64.16,5.28,63.7,5.24,63.14,5.19Zm0,2.33.29,1c-1.24-.05-.85,0-1.17-.58C63,8,62.65,8.37,63.14,7.52Zm-.58,7.87-.15.58-.58-.58Zm-.44-3.64L61.68,11l.44.15Zm-.73-6V5.48l.44.44Zm.15,16.61L62,23l-.58-.29Zm1,1.31,1.31.29-.15.44-2.33-.15Zm-1,3.06.87.15-.15.29-1.46.44ZM60.81,15.1,60.08,15l.29-1L61,15Zm-.73-8,.73.44C60,7.26,60.44,7.69,60.08,7.09ZM57,9l-1.17-.29,2-2.19A3.11,3.11,0,0,1,57,9Zm-.58,13.55-.73.58.15-.73Zm0,1.89L57,23.26l.58.58v.44L54.83,25v1.17H53.67V26c1.11-.58.13-.57.73-1C55.12,24,55.37,24.37,56.44,24.42Zm-1.89-5.1.15-.58.29-.15h.29l.29.29ZM54.83,15l-.15.15c-.67-.51-.2.08-.44-.73h.58Zm-.44,7.14-.15.15-1.6-.15,1.46-.29v-.44l-.58-1.17C54.57,20.55,54.42,21,54.4,22.09Zm-1.46-3.93.15-.58h.58Zm.15-2.91.29-.58.44.15Zm-.73,5.83-.58-.87.44-.87C52.77,19.74,52.62,20.21,52.36,21.07Zm-1-3.79L50.61,17l1.31-.87Zm-.87,10.34-2,.44c.22-.64-.47-1.05.15-1.31.67.51.38.53,1.17-.15l.87.87Zm.15,1-1.6.58c.36-.76.52-.33,1.17-.73Zm-1.46-9.32.44.73-.73.29ZM49,17.14l1,.29-.87.29Zm.15,6.26v-1C49.76,22.67,49.43,22.81,49.15,23.4Zm-1.6-4.22.29-.15.73-.29h.29C48.49,19.42,48.37,19.42,47.55,19.18Zm2.77,5.24.73-.87v1l-.29.15Zm0-4.37v-.73l.15-.15h.29C50.82,19.47,51.13,19.87,50.32,20.05Zm.58,2.33c-.27.1,0,.16-.29,0Zm0,5.24.44.87-.58-.58ZM48.13,13.5l.15-.29h.44l-.15.73ZM48,11.89l.44-.15.29-.44C48.81,11.93,48.91,12,48,11.89Zm.29-4.08c-.3.28-.23-.2-.29-.29l.73.15ZM48.13,11H48l-.15-.44.15-.15Zm-.58-4.66-.29.44v-1l.58.58Zm-.15,4.37.29.15v.44C47.09,11.07,47,11.21,47.41,10.73Zm.15,7.43H46.39l.44-.29.15-.44Zm-1.31-2.48.58-.58C46.76,15.31,47,15.35,46.24,15.68ZM47,22.09V20.34l1,.87-1.17,1.6-.87-.58v-.29Zm1,4.08-1.89.44.44-.29,1-.73Zm-1.75-.58.15-.44h.29l.29.29-1.17.29ZM39.69,57.19l.58.15-.44.44ZM38.81,33c-.23.45-.37.56-1.31.73l.29-.73c.67,0,.19.17.87-.29V31.27A1.14,1.14,0,0,1,38.81,33Zm0-3.79-.87.29v-.44l-.73-.29,1.17-1.6h.73A2,2,0,0,0,38.81,29.23ZM37.65,25l.44-.29.44.15Zm0-3.5.58-.87h.29Zm.29,1.75.44.15-.73.87-.58-.73ZM35,28.5l-.15.15-.44-.58ZM34,25l-.29-.58C34.22,24.83,33.94,24.36,34,25Zm-.44.15-.44.73L33,25.73Zm-2,1.46c-.78-.09-.27.34-.73-.29Zm-1,1.31-1.46.58.15-.73.73-.15Zm-.87-3.79.15-.58.73-.58.29.29-.15.29-.29.58Zm.44-3.2.15-.29.29-.15.29.29Zm-.87-1.17L30.07,18l.15,1.75Zm.44,6.7-.58,1-.44-.15v-.87Zm-5.24,7.43c.52.28.34.59,0,1.17v-.15C24,34.3,24,34.35,24.39,33.89Zm0,2.48,1.17-.73.29.15c-.13.69-.34.71-1.46,1Zm1.17-2.91c.7-.45.76-.18,1-1.17l.58.15.29,1.17-.29.15Zm-.44-6.7L25,26.61h.73C25.27,27,25.57,27,25.12,26.75Zm.44,1.31c-.74-.37-.65-.07-.58-.73Zm.29-.29c.64,0,.12.25.73-.15l.58,2.62A3.21,3.21,0,0,1,25.85,27.77Zm.44-1.17.44-.87c.52,0,1.52.4,1-.15l.15-.15.44.58ZM25.7,21.8v-.58h.44Zm.73,2.62.15,1c-1.6.06-.26.06-1.6.29l-.15-.15.73-1C26.33,24.79,25.79,25,26.43,24.42Zm-2-.15.15-1,.58,1.17ZM25,29.52h.73v.58l-1.46.15Zm-1.17-1.46v-.29l.44.44Zm3.5,8.59.41.82V29.63h2.22c.88-.54,2-1,2.46-2A1.45,1.45,0,0,1,32,29.52l-.13.11h4.44l.06-.7.44.15-.22.55h.52v1.81l.29,0c.25,0,.06.22-.29.41v1.4H32.84v.09h-.58l-1,.32V36l.23-.19.29.29-.52.2v1.34a2,2,0,0,0,1.39-1l.29.73-1.69.84v1.31l.08-.11.87.29v.15l-.44.44.58.44v.44l-.15.15-1,.12V44.1l.23.57c1.14-.12.58-.54,1.31.29l-.15.15-1.39.13v2.15h4.65V51h-.16c.06.32,0,.33-.91.55l.65-.55H31.3V63.61l.81.58-.15.15-.67-.67v1.71l1.83-1,.58.44-2.41.67V69H30.11l.26,2.18L32.84,71l.29,1.46c-.93.3-1.54.67-2.48.29l1.75-.87-.15-.29-2.62.15-.15-1.6-.58.58c-.29-.62-.49-1.2,0-1.6L29,69H28c-.14.29-.64.33-1,.28l.15-.29.56-.45V63.74l-.41.16-.58-.73,1-.18V46.46l-1.29.1L27.72,46V43.37l-.85.42.58-.44h.27V40l-.27-.18h.27v-1l-.12,0h.12V37.56l-.12.12c-2.13.22-2.36.75-4.08.44ZM32,38.84c-.42.13-.21.37-.44,0Zm-8,8.45-.29-.73C24.11,47,24,46.66,24,47.29Zm0,.58h1.31l-.44.44-1.89.44Zm-.58-5-.29-.73.15-.15C23.64,42.54,23.43,42,23.37,42.92Zm-.58-7.43.44-.15C23,35.47,23.23,35.61,22.79,35.49Zm.44,7.87-1.75.29.44-.29.29-.44ZM21.48,42l.29-.58.44.29-.29.44ZM20.31,40.3l-.15-.87-.44-.15L21,38.4l1.75.29C21.8,39.29,20.82,38.77,20.31,40.3Zm1.89-9,.44.15C22.21,31.58,22.33,31.45,22.21,31.27Zm.15,2.91-1.89,1c.43-.83.54-.49.15-1.46l-1.31.15,1.46-1.75.44,2Zm-2-4.08.15-.15.15.73Zm1.17-3.5-.29-.15L21,26.31l.44-.44.15-.29.29.58Zm0,.73L20.17,30.1l-.73-.29c.87-1.16-.49-1.59-1.17-2l.44-.29A2.63,2.63,0,0,0,21.48,27.33ZM19,30.1v.15c-1.24.18-1.32.19-1.6,1.31l-.73.15-.15-.87,1.6-1Zm-1.17-1.31-1.46.29.44-.44c.29-.77.06-.28,1-.73Zm-1.31,5.54.15.58-.58-.15v-.44Zm-.29,4.08.58.58-1.75.15ZM13.32,49.62l.44.15-.73.29Zm0,4.52-.44.44L12.59,54Zm-1.6,5.39.44.15-.73.29Zm0,2,.58,1.75-3.2.87L9,64l.15-.44C10.56,63.06,10.82,63.26,11.72,61.56Zm-2-6L9.24,55c1-.18,1-.49,1.6-1.31C11.93,54.87,10.7,55.45,9.68,55.59ZM8.51,54.14v-.58l.73-.44.29.73ZM9,46.85l.15-.44.73-.58v.87Zm-2,12.82a2.53,2.53,0,0,1-2.77,1l2-1,.29.15Zm-.44-3.2h-1L5.75,56,6,55.88h.44ZM4.14,59.53c-.23,0-1,.29-.58-.15Zm-1,4.37A4.28,4.28,0,0,0,5.6,62.58l.44.87c-1.31.37-1.82.44-2.33,1L3,63.89Zm1.31,4.52L3.85,69l-.15-.73Zm.44,1.17,1.89-.87h.29c-.55,1-1.47,1.55-2,3.21l-1.46-.44V71L5,70.6Zm-.73,3.35L4,73.65H3.42v-.58l.15-.15Zm1,2.19-.29,1.31-1-.29C4.65,75.78,4.75,75.87,5.16,75.11ZM4.87,73.8l.73.29v.15Zm.73,6.85-.15,1.17-.73-.29ZM4.44,73.07l.44-1,1.31.15.15.15Zm1.79.78.1-.2s0,.13-.1.2l0,.09L6,73.89A.35.35,0,0,0,6.23,73.85Zm.83,1.55.58,1.17L6,76.42C7,76.06,6.77,76,7.06,75.4ZM7.93,84l.44.44v1L7.64,85Zm1.89,2.91.44.44H9.1Zm1.89,8.16.87-1v1.17l-1.17.29Zm1.6.44,1.31.44-.58.44-1.89.29ZM12.74,98l2.19-1.17C16.07,97.53,13.46,98.07,12.74,98Zm2,2.18-2.33.58L14.63,99Zm1-2,.15-.29c.67.18.63-.12,1,.58l-1.75.29-.15-.29Zm1.31,3.2.44.44-.44.29-1.46,1-.15-.44v-.15Zm1.89.44.15-.29.44,2.19-.15.15c-1.47-.21-2.61.9-3.5.29C17.33,103.62,18.53,101.74,19,101.77Zm2,4.66c1-.7.36-1.81,1.75-2.91l-.87,2.91-.87.15Zm1.46,1c-.27.1,0,.16-.29,0Zm0-5.54v-.58l1.6.73h-.44Zm5.24,7-.15.15-.73.15-.15-.87Zm-.29,1v-.15c1.11-.2,1.07,0,1.75-.73l-.15.87c.73.2.19-.32.87.29v.44l-2.48-.58Zm5,.15c.82.66.74,1,0,1.6l-.87-.15Zm.73,2.77c-.51.31-.56,0-.58-.15Zm.15,1.17c-.14.1-.25.5-1.17.15Zm.29,3.35v-.29l.29.29-.58.29Zm-.29-9,.15-.73.87.29Zm6,3.64.73.15v.44l-1.46.15Zm.29,2.33v-.73c1.39-.19,2.16-.59,2-1.6h.87l-.44,1.6Zm3.64-.58.73.58h-.29c-.61,1-2.62,1.27-3.06.73C41.17,114.86,43,114.66,43.18,113.71ZM43,116.48l-.58-.58.58-.15.29.29.15.29Zm.15,1.6-.73-.15.15-.44h.29ZM41,117.35c.76.5.83.38.87,1h-1Zm.58,1.89.44.15-.58,1.31-.44-.87Zm.15,2.33.87-.29-.29,1h-.73Zm2.18-17.33-.29-.58.73.15V104Zm.58,11.07.87.15-.15.29-.44.29-.58-.29Zm.87,4.22.58.29H44.64Zm.87,1.31,1.46-1.46H48c-.25.75-.63,1.92-2,1.6Zm1.17,3.93.44.73-.15.15C47.12,125.09,47.36,125.41,47.41,124.78Zm.15-1.46h.58l-.29.58Zm0-1,.73-1.75h.29l.15,1.31Zm.87.58.29.73-.44-.44Zm.44,3.06.15.29c-.71.18-.48-.29-.58-.44Zm-.44-6.41.44-.58.15-.29.58.58Zm1,7.72c.88-.46,1.14-.65,1.17-1.6.36.55.16.81.15,1.6l-1.31.15Zm1.31-7.14.58-1.17.58,1.31Zm.44,3.79.29.29H51Zm.15-2.77V121h.73l.15-.29.15.15.44.15Zm1.17.87.15-.15.73-.29,1.17.29-2,.29Zm1.17-4.37.58-.44.29.29Zm1,1.31c-.33,0-.14,0-.29-.15Zm-.15,2.18.29-.87h.58l-.73,1v-.15Zm-.87-29,.44-.44-.44,1-.29-.15-.15-.29Zm-.44-5.1.58.15C53.35,87.23,53.58,87.54,53.23,87.06Zm5.53,15.88,1.17-.44-.58,2H58C59.2,104.17,59.13,103.72,58.77,102.93Zm-.44-18.35.44-.73C58.7,84.5,59,84.14,58.33,84.58Zm.73,3.64-.15.73-.58.15Zm-.15,10.92.15.87-1-.15.44-.15Zm-.15-2.48.58.58C58.68,96.89,59.13,97.34,58.77,96.67Zm1.17,3.5h.58l-.44,1.17-1.31.29v-.44Zm.44,4.81,1,.58-.15.29-.15.29-1.31.15Zm-.15-6.85.44-.15.15-.29h.29C60.88,98.12,60.9,98.16,60.22,98.13Zm-.58-1.6h.58C59.77,96.88,60,96.87,59.64,96.52Zm-.87-6h-.29l2.62-1.6C61.53,89.94,59.47,90.86,58.77,90.55Zm1.6-4.81L58.91,86l1.6-1.17ZM59.2,83.12l.29.29C59.1,83.29,59,83.5,59.2,83.12Zm.15,27.68-.73-.15.29-.29h.29Zm1.75-1.17h.29C61.11,109.73,61.35,109.78,61.1,109.63Zm6.12-10.05-.44-.29V99Zm-.44,1.31h-.87l.44-.44.29-.73Zm-1.46,23.6.58.44C65.27,125.29,65.3,125.1,65.32,124.49Zm.29-2.77.58-.87h.44Zm.73,3.93.87-.58c.24,1-.19.9-1,1.17Zm.58-5.68.44.15C66.9,120.08,67.27,120.27,66.92,120Zm.73,3.79.58.44h-.87Zm.73,8.74H69l.58-.58.58.73Zm1.75-10.92.73.15-.58.29Zm.58,9.61.58,1.46h-.87Zm.29,2.33.44-.15.15-.44C71.73,133.68,71.75,133.58,71,133.52Zm.29-5,.58-.15.58.29C71.51,129.07,71.71,128.83,71.29,128.57Zm.73,1.17.15-.15,1-.29.44.73-1.17.44Zm1,3.64.15-.29h.44Zm1.46-.58-.44.58-.15-.29v-.58l1,.15ZM73,131.19,74.94,130l.29.58Zm2.18-3.5L76,128C75.31,127.94,75,128.37,75.23,127.7Zm1.17.15L76,127.7l.58-.87C76.79,127.42,76.79,127.34,76.39,127.84Zm.58,3.93-.15-.87.29.73Zm.73-6,1-.87h.58l.15.58Zm.29,2.33.58.58H78Zm.58,3.64-.15-.44.73-.44C79.4,131.49,79.19,131.32,78.58,131.77Zm.73-1.89-.87-.15v-.29l1-.58Zm2.18.73-1.75.58-.15-.44,1.31-.73h.58Zm0-3.79h1.17v.73C81.79,127.52,81.82,128,81.49,126.82Zm1.17,4.66.15-1.31.44,1.46Zm1.6-.29-.15-.15.29-.44.29.15ZM84,128.28l-1.6.29-.15-.15,1.6-.29v-1.46c1.22-.24,2.15-.26,2.62-1.31l.44.15.29.15c-.93,1.19-2.14.65-3.06,1.31.15.41.26.09,0,.44.33,1.63.91.6,1.6.44l.15,1.31-1.17.44Zm1.75,2.19v-.15l.87-1.31,1.17,1.46Zm2.77-3.2-.44.15v-.87C88.79,126.94,88.51,126.73,88.48,127.26Zm0-1.89,1.75-1,.87.58C90.27,125.42,89.15,125.82,88.48,125.36Zm2.33,3.93-.15-.15.44-.58.29.58ZM89.65,127l-.15-.29.15-.15,2.62-.87.15-.73.15,1.46Zm2.91-4.22.15.29C92.38,123,92.65,123.06,92.56,122.74Zm0-3.93v-.15l.87-.87.15,1h-1Zm.87,4.37.15-.58.29-.73.29,1.17-.44-.15Zm.58.58.44.15C94,124,94,123.79,94,123.76Zm.73.29.58-1.17.15,1Zm.15-28.7,1,.15-.29.29.15.44C94.8,95.75,95,96.14,94.89,95.36Zm1.17,20.83v-.29l.58.87h-.73Zm.15,10.34.73-.58.58.15Zm1.17-13.4.29.29C97.46,113.33,97.11,113.45,97.37,113.13Zm.44,13,.87-.87C99,126.09,98.72,126,97.81,126.09Zm.87-7.87.44-.44.58.29C99.2,118.35,99.5,118.49,98.68,118.23Zm.87-1.46h.29l.29.29Zm.73-.29,1.89-1,.29.87-2.18.29Zm.87,7.43-.58-.44.58.15Zm2.48-7.43v1h-1.31Zm-.44,5.39v-.44l.58-.44.44.87Zm2.33-3.64-.87.15-.15-.15c.62-.69.89-.78.73-1.6h.44Zm.29.73.15.29C105.64,119.22,105.91,119.27,105.82,119Zm.73.44-.15-.44.15-.15C106.88,119.12,107.09,119.17,106.55,119.39Zm.87-2.91.15-.73.15-.15.58.58Zm1.17,2.48-.15-.15.44-.58h.44Zm.44-2,.87.15S109.3,117.63,109,116.92Zm.29-2.91,1.46-.44-.58.73Zm1.31,1.17h.44C110.94,115.59,110.7,115.46,110.62,115.17Zm.73-4.66.44.15-.73.29Zm.29,6.41.15-.58.29.15Zm.44-1.89h-.15l.44-.29.15-.29.15.44Zm1.31-1.31-.73-.44L113,113l2.62-.44Zm.73-5.24.58-.15,1.75,1.17C115.9,109.69,113.92,109,114.12,108.47ZM117,107c-.8-.17-.46,0-.87-.44l.87-.44Zm1-1.6h-.44l-.15-.29Zm-.15,3.64.15-.15.58.15C118,109.3,118.55,109.39,117.91,109.05Zm1.17-1.31-1.46.15,1.46-.87Zm.29-2.91-.87-.29-.15-.29h1.17Zm-.15-2.48-.29-.87.87-.29.58.58C119.52,101.87,119.73,101.65,119.22,102.35Zm.87,1.17.73.15-.44.87-.29-.58-.44.15Zm.48,2.24,0,.09-.58.15.63-.24.1-.2h.44Zm.54-2.53v-.58h.44Zm.73-1.89-.73-.73.58-.29C122,100.72,122.37,100.84,121.84,101.33ZM122,99l.29.29C121.88,99.19,122.22,99.3,122,99Zm.15-4.81h.73l-.58.58Zm.87,3.2.15-.29.29.73-1-.29Zm.29,4.66.15-.29.15.73C123.21,102.13,123.27,102.41,123.3,102.06Zm-.15-3.21a3.31,3.31,0,0,0,1.75-1.17l.29,1.31ZM125,96.38v-.29c-.29-.58-.24-.16-.15-.87C125.38,95.79,125.45,95.51,125,96.38Zm.87-1-.87-.58.73-.44.44,1.17Zm-.29-1.75.87-.29.87.15C126.25,93.86,126.2,94.15,125.63,93.61Zm1.75-1.17-1.6.15,1.17-1h.73ZM128,77.73l.29.15-.44.44-.15-.15Zm.15,6.41.15.87C127.73,84.54,127.65,84.77,128.1,84.14Zm0,5.24v-.15l.44-.15.44-.58.29,1Zm1-1.75-.15-.29h.73Zm.15-1.6v-.15l.73-.29.44.15Zm1.46-3.5-1.31-.73,1.75.29Zm.58-.87.15-.29.44.15Zm.87-2v.29H132l.15-.73Zm-1-8.45.73-.87c.53.66,0,1.13-.44,1.6l-.15-.15h-.15Zm.29,3.79.44.44-1,.15Zm0,1.89H131l.15-.29Zm-.44,2,.73.73-.29.58c-.34.06-1.82.4-1.31-.29l1.17-.29-.44-.44Zm-1.75.15.44-.29,1.17.58Zm1.46-8.16L129,71l-.15-.15.87-1.46C130.47,69.68,130.53,70.28,130.72,70.89Zm-.44-6.41c-.54.89-.31.78-.29,1.6l-.73.29c-1-.58-.35-.5-.87-1.31-1,0-.78.37-1.31-.15l1-.73.29.58Zm-.44-1.17-.29.44L128,63.6l1.46-.58ZM130,60v-.44l.44.15Zm2.77-2.19c-.77,1-.54.9-.58,1.89l-.44.15c-.39-.72.21-.37-.58-.58l.73-1.6ZM131,56.32l.29-.15.73.15-.15.29-.73.44Zm.73-2.77.29.15-.73.87Zm-.15-.87c-.8.17-.87.37-1.31-.15Zm-1.17,6h-1.89v-.15l1.31-.44C130.62,58.37,130,58,130.43,58.65Zm-.87-11.94h.58l-2,.73v-.15h.15Zm-.44-.73h-1.46c.76-.34.55-.16.73-.73Zm-3.5-3.64L128,40.88l.44.73Zm.29-1.89.44.44C125.75,40.77,126,41.05,125.92,40.44Zm1.49-.94.11-.22.44.15-.55.08,0,.07h-.44Zm-.76.94v-.58l-.15-.29C126.91,40,126.81,39.72,126.65,40.44Zm-.87-5,.73.87v.15l-1,.15-.29-.58Zm-1.89,8.59.15-.44.73.29Zm-.58-9.61,1.31.58v.15l-.73.29-.73-.29Zm.58,5-.15.44v.29l-1-1.46Zm-1.46-4.81-.29.29-.58-.29.15-.29.73.15Zm-.58-5.1s.07.68-.87.44Zm-.73,2.62-.58-.29.29-.15Zm-2-6,.29.58-.58-.15Zm-.58,1.31.73.58h1l.15.44.29.73-.58-.15c-.24-.91-.21-.42-.87-1l-1.17.15-.15-.58Zm-.29,2.91-.58.44-.29-.15-.15-.87.58-.58C118.48,29.66,118.18,29.29,118.2,30.39Zm-.87-4.08.29.58-1.89.44C116.31,27,116.93,26.92,117.32,26.31Zm-1.6-4.08h.58v.58l-.73-.15Zm.15,1-.44-.15v-.29Zm-.44-1.31-.29.15v-.58l-.15-.29Zm-.58,3.64c.85,0,.35.33.73-.44.36.52.44.35.15,1l-.87-.15Zm0,7.43c.06.4.42,1-.29.73h-.73V33.6Zm-1.17-4.08.58.44C113.57,29.17,114,29.42,113.68,28.94Zm0-8.74.44.44-.15.29-.87-.44Zm-.29,11.94-.15.44-.29.15-.58-.58.15-.15Zm-1.17-8.3c-.85,0-.24-.16-.73.44l-.15-1,1,.15ZM111.79,19l.15-.15c.35.55.15.23-.15.73Zm-.29.29-.29.87-.29-.15-.15-.15Zm-1-1.6L110.33,19h-1.46l.44-.15Zm-1.89-2.91.29.73c-1.37.05-1.38.41-1.89-.44Zm-3.06-.58,1.17-.29C107.28,14.63,105.84,14.36,105.53,14.22Zm-.73-1.6.29.15.58.15-.15.29h-.87Zm-1,4.08.44-.58.44.44Zm.15-3.06.58,1.46-2.18.15,1-.58Zm-2,.15.15-.44.73.73-.15.15-1.17-.29Zm-.44,6.56.15.73-.73-.15h.44Zm-.73-10.92.44.15C100.86,9.61,100.38,9.73,100.72,9.42Zm-.29,1.75c1.18,1.51-.74,2-2,2.19l.15-.58C99.57,12.47,99.74,12.08,100.43,11.17Zm-1.6-.87.15,1-1.17.15ZM97.37,13.2a1.62,1.62,0,0,1,.29,1.6,2.58,2.58,0,0,1-2.19,1c.59-.77,1.73-2.17,1.75-2.19ZM97.08,12l-.29.15-.44-.58.29.29Zm-.87-1.89h.29l-.29.58Zm.44,4.08-.73.29-.44-.87Zm-.73-3.64v.15L94.45,11l.44-.29.15-.29ZM95,6.94l-.58,1-.15-1.31Zm-.87,2.91c-.73.15-.32.29-.73-.15Zm-.44.87.29.15.29.44h-.58l-1.47.28-.28.16H91.4l.86-.16Zm-3.06,0,.87-1C91.86,10.65,91.55,10.33,90.67,10.73Zm.44-4.66.44.29h-1ZM90.38,9a1.47,1.47,0,0,1-1.6.73L88,8.4C89.14,9.05,89.11,9.31,90.38,9ZM89.07,4.9l.44-.29.15,1c-.9-.26-.27,0-.73-.58Zm-1.17-1,.87.15-.15.29-1.17.15ZM86.74,6.94l.44.29-.44.58-.44-.15-.44-.15ZM86,10.15l-.44.44.15-.58Zm-.15-5.53V5l-.44-.44Zm.29,7.28h.15c-.68.33-.61.42-1,0Zm-1,2.19v.15H84l-.15-.29.58-.58Zm-1.6-9,.29-.15.44.58-.15.15c-.48-.36,0-.16-.58-.15Zm.29,1.46-.87,1.6L82.66,8l-.15-.73,1-.73ZM82.36,5.34h.29l.15.15-.73.29Zm.29,3.2V8.11l.29,1-.87-.29Zm.15,3.93.29.87v.15l-1.17-.87Zm-.73,3.35-.15,1h-.15Zm-1.31-2-.15-.58.15-.15.73.15Zm0-6.41v.44H80V7.52l.44-.29ZM80,2.86l.29.15c.1.27.16,0,0,.29l-.44.44-.15-.15ZM79.6,6.79H78.43l.44-.44L79,6.07h.58Zm-1-5,.58.44-.29.29H77.12ZM76.68,5.48l.87-.73v1l-1.31.15ZM75.23,4.17,76,3.74v.87l-.87.15ZM74.35.68l.29.44h-.44Zm.15,2.19.15.15h.29l-1.17.73ZM73.63,8l.29.15-.15.15L73.19,8Zm0,2.77c-.07.12.14.21-.44.44Zm-1.31,4.08h-1l1.17-1ZM71.88,3c-.24.22-.29-.15-.29-.15Zm-.15,2c.51.41.2.28.29.58l-1.46.29C71.63,5.53,71.33,5.84,71.73,5ZM70,5l.29-.87.73.29h-.29l-.87,1.17L69,5ZM69.11.53h.44L69.11,1Zm-.58,3.35L69,3.45C69.58,3.42,68.8,3.77,68.53,3.88ZM68.24,1h.44l-.87.29Zm-.29,4.37c-.12.3,0,.32-.29.15Zm-1,1.46h.73l.15.58h-.87ZM65.61.09l.29.87L65.61.68,65.18.53Zm-.73,5.24,1.17-.15.73,1.46-2-1ZM63.57.24l.87.44-1.17.44ZM60.66,2.57a2.45,2.45,0,0,1,1.46,1.6c.89-.53.38-.83,1.17-.15l-2.18.58.29-1.31-1-.29Zm-.44,3.79h-.15l-1-.15c.5-.44.67-.19.73-1.31ZM59.06,2l.58.44C58.92,2.31,58.7,2.56,59.06,2ZM58.62,4.9,58,5.48H57.6l.73-1ZM58,2.57c-.88.1-.62,0-.87-.15H58ZM57,1.11l.44.15L57,1.55,56.87,1Zm-.58,2.77.29-.44.29.87-.73-.15Zm0,1.75.44-.29h.44l-1,.87Zm-.73,2.48h-.15l-.44-.44.29-1C56,7.29,56,7.24,55.71,8.11Zm.15-6.7c.07.59,0,.3-.44,1h-.15L55,1.84Zm-.73,1.17.44,1.17-.73-.15Zm0,6.55v.15c-.52,0-.14.14-.44-.29Zm-.58,1.46c.55.7.35.52,1.17.73v.44L54.25,12l-.15-.15ZM54.4,6.5l-1.31.29V6.65L54,5.48ZM52.94,3.59h.44l.29.15L52.8,4.9h-.15l-.44-1.17ZM52.07,5l.29.58-.73-.29ZM51,13.2h-.44v-.58l.44-.15C51.59,12.83,51.21,12.81,51,13.2Zm-.29-7.87h.44c-.39.35.08.21-.44.29Zm.15,3.35-.29-.15L50.76,8Zm-.29-5.54a.75.75,0,0,1-.15,1l-.15.58c-.72-.53-.63.17-1-1C50.34,3.86,49.83,3.86,50.61,3.15ZM48.28,3l.44.44-.44-.15Zm.15,1.46.87.29L47.55,5l.73-.29ZM47.26,3.15l.73.29-1,.15ZM46.82,6.5l.29.15c-.51.29-.32.11-.58,0l-.15-.15Zm-.73,7.87-1.17.29-.15-.58,1.46-.73Zm-2-8.74c.59-.56.15,0,.44-1l.58.87.87-.87.15.15-.87,1C44.85,6,43.71,5.9,44.06,5.63Zm0,2.91c.55.35.16.34,0,.73h-.15Zm0,7.28-.73.58L42.74,16l.87-.29Zm-2.33-5.24.29.15C41.69,10.7,41.66,10.9,41.73,10.58ZM42,11.89l1.17-1.17.15,1.17L41.58,12Zm-2.62,4.22-.15-.73,2.18-.58Zm1.17-9.91.44.44-.44-.15Zm-1.17,7.72v.44h-.15v-.29l-.15-.15Zm.15,2.19-.29.73L39,16.26Zm-.58,1,.15.44-.29-.15Zm-.87-8.89.44.87-.87-.44Zm-.87,5,.58-.29.15-.29C38.82,12.66,37.27,13.21,37.21,13.2Zm.58,1.6.15-.58C38,14.69,38.28,14.45,37.79,14.81Zm-1.6-5.24L36.63,9l1,.15Zm.87,2.18c-.46-.25-.31.09-.29-.44Zm-.58-4.08.29.29L36,8.25Zm.15,8.16.73.15.29.29H37.5l-1,.44-.73-.44Zm.73,1.46,1.31.15c-1.59.63-1.84,1.72-3.35,2.18.44-.72.41-.42.29-1.17ZM35.46,9.71c-.28.09,0,.15-.29,0Zm-.15,5.83H34.15l.44-.15.58-.58C35.6,15.36,35.38,14.79,35.32,15.53Zm-1-1.6.15-.44.58.29Zm-.87-4.22.15.58.58-.44.29,1.31L33,10.44Zm0,4.08c-.42.13-.21.37-.44,0Zm-1.46-1,.44-.29c.65.27.2.18.44.73l-1.17.29Zm-.44,3.64-1.75.44.29-.44.73-.29Zm-1.46-4.66.15-.29.29.73-1-.15Zm-.73,2.91.15.15c.46.49.14,0,.29.73l-.44-.15-.87-.15Zm-1,3.35c0,.64.24.67-.58.58l.44-.29Zm-1.75-3.79,1.17-.73c.32.49.41.17,0,.58l-1.31.58Zm-1.17.29.44.58-.15.15C25.17,14.66,25.42,15.17,25.41,14.52Zm0,3.06h1v.15l-1.6.15Zm-1.17.29h.29l-.15.87h-.15Zm-.58,1.75c.82-.2.27.28.73-.44l.15,1H26c-.72.7-.56.48-1.6.58l-.87-1Zm-.44,6.85v-.58l.29.15Zm-1-7.72c-.52,0-.18.06-.44-.29Zm1,2.77c.23,1.61-2.44,2.07-2.91,2.62l-.44-.73Zm-3.5,3.2c.8.44.55.09.58,1h-.15l-1.31-.44Zm-1.46-1.17.44.87L17,24.86ZM17,27.19l-.44-.87,1.17-.58.73.29c-.77.6-.91,1.14-1.46,1.6H15.21l.58-.44ZM15.51,25v.44l-.15-.58Zm-.58,1.17.58.15v.44l-.73-.29Zm-1,.58.29-.15h.29l.29.15-1.17.44Zm-1.31,2.91.58-.29H14c-.27.79-.33.22,0,1l-1.6-.29Zm-1.17.58,1,.29-1,1L11,30.83ZM11,31.85c-.68.29-.65-.08-.73-.15Zm-.44,3.64L11,35.2h1v.44l-1.75.29Zm.15,3.2h-.15V38Zm-.29,8.74.44.15-1,.29.44-.15Zm-.29-3.35c-.74,0-.42.05-.73-.15h.73Zm-.73-1.89.44.15-.15.58-1.17.15v-.73ZM8.22,39.28l.58.15C8.23,39.59,8.56,39.78,8.22,39.28Zm-1.46-1v-.15l2.48-1.17v1Zm0,6.7c-.45-.28-.09,0-.29-.44Zm1.46.15.58.58L6.33,46ZM7.49,48c.14.6-.7.95-1.75,1l.44-.15ZM5.6,47.29h.29a1.07,1.07,0,0,1-1.6.44ZM4,50.79l.87.44-1.6-.15ZM3.27,48l.44.15-.15.15C3.29,48.26,3,48.31,3.27,48Zm.15,5.24.87.44-2,.44L2.4,54Zm-.87-2,.29.15L2,51.66Zm-.44,4.22,1-.15h.44c-.69.68-.83.73-1.75.29Zm.29,1v1.31L2,57.63,1.38,57ZM1.23,60l-.29.29-.15-.73ZM.79,69l.87-.29,1.46.87c.22-.11.2.18.58-.44v.58l.29.44-2,.29c.53-.65.44-.14.29-1-1,0-.85-.48-1.46.29Zm.15,2L.79,70.6l.73.15Zm1.31,1.31.58,1.31H1.09Zm-.58,5.53.15-.73,1-.29.15.87Zm-.15-2.33,1.75-1h.44l-.15.73Zm2,7.43.15-.58h.44ZM4,84.43l-.15-.15h.44C4,84.5,4.32,84.46,4,84.43Zm-.15-4.37.87-.58.44.15Zm1.6,6L5,85.45H5.6Zm-.87-1.75L6,82.69,6.77,84ZM6.18,93l-.29-.15-.15-.44.73.15Zm.15-5.1,1,.29v.15l-.87.15Zm1.31,4.52-.29.15-.58-.87.87.29Zm-.73-2.19,1.89-.73v-.15H7.49l.15-.58.44-.29c.91.7.88,1,1.89.58l.15,1C8.59,89.5,8.51,90.81,6.91,90.26Zm1.75,3.35H8.22L8.51,93ZM8.08,97.4h.15L9,97l.44.44-1.31.29Zm.29,1.89.15-.44L9.1,99Zm2.48-1.17-.44.73-1.17-.15h.44l1.17-1.17Zm.15,1.6.87-.29S11.87,100,11,99.73Zm.29,4.37a35.9,35.9,0,0,1,4.22-3.5l.44.44-.15.15c-2.77,1.24-2.16,1.87-4.08,3.2Zm1.31.87,1.17-.87,1.17.15v.58h-.15l-2.33.58Zm1.89,1,1.17-.44h.87v.87l-.58.44h-.73Zm.73,1.89.87-.58.58.44-.73.15Zm.87,2.62.44-1,.44.58Zm.87-2.91.87-1.31.15,1.31-.44-.29C17.06,107.73,17.61,107.53,17,107.59Zm.73,2.48.29-.29.29.44Zm3.5-2.33.29,1.31-2.77.58A3.77,3.77,0,0,0,21.19,107.74ZM19,113.57l.15-.29h.29C19.31,113.78,19.52,113.47,19,113.57Zm0-1.31a4.33,4.33,0,0,0,.44-1.75l1.6.87-.87-.29v1.31C19.21,112.07,20,111.84,19,112.25Zm1.6,2.91-.29-.73.58.15ZM21.77,113l-1.89.44L21.33,112l.58.87Zm.44,2.77,1.89-1.46.73.15v.15l-1.75,1.31Zm1.89,1.89-.15-.29-.15-.29.15-.44c1.61,0,1.67-.12,2.62-1l-.29,1.17A2.94,2.94,0,0,0,24.1,117.64Zm2.62,1.75-.15-.29.58.29Zm2-2.77-.58,1.31H26v-.15l1.89-.87-.29-.58,1.17.15Zm.44-1.17-1,.29-.29-.15,1.31-.73h.29Zm.29-2.19-.15-.58.58.73Zm.58,6.41-.29-1.17,1.17.29Zm.58,1.6.58-.87h.29Zm1-4.52-.29-.73.15-.15h.73l-.29.73Zm.44,3.2,1.31-1.17.15,1.75.87.15c.57-.6.37-.87,1.31-.87-.7.61-.76.5-.29,1.31l-2,.44c-.47-1.28-.59-.84-1.46-1.46Zm2,5L33,124.64l.15-.44-.15-.58,1.46.29Zm.73.73.15-.58.15-.15.44.58ZM36.34,122a1.7,1.7,0,0,1-1.6.29l1.6-1.31.58.29C36.63,122,36.88,121.64,36.34,122Zm.87,1.17.29.58C37,123.4,37.34,123.73,37.21,123.18Zm.29-5,.58.58C37.29,118.6,37.55,119,37.5,118.23Zm.29,5.24-.15-.15.44-.87L39,123ZM39,114.88l.29.29-.29.58Zm.87,9.91-.29-.15-.29-1.75.58,1Zm-.58-3.35c.23-1.23-.26-1-.15-1.75l.87.44-.15,1Zm.73-.73h.29v.58h-.15Zm1.31,6.12-1-.15h1Zm2.77-4.66.29,1.31-3.06.15C42.18,123.09,43.42,123.23,44.06,122.16Zm-2.33,6-.15-.29.58.29Zm.58-1.46-.29-.58c.82-.1.35.16.87-.29h.44v.58Zm1.31,1-.29-.15c-.21-.55-.18,0,0-.58l.58.58Zm.58-.15-.29-.73.44-.58.29.73C44.41,127.56,44.81,127.15,44.2,127.55Zm-.87-2.91.15-.29c.59-.3.94-.29,1.31-.87l.15.15c.61.22.49.27.29.58A1.56,1.56,0,0,1,43.33,124.64Zm1.89,3.64.58-.73.29.29Zm1,.29v-.29l.58.44Zm1.17-2.33.15-.15.29.58-.73.29Zm-.15,3.2.58-1.6,1-.44h.44c-.59.67-1.51.62-.87,1.89Zm1.75.87.44-.44.29.44Zm.87,1.31L51,131C51,132.12,49.88,131.63,49.88,131.63Zm1-3.2v-.15h.58l.29-.44C52.31,127.74,51.83,128.37,50.9,128.42Zm1.31-3.06,1-1.17-.29,1.17ZM53.52,130l1.17.29-2,.44Zm.44,2.19,1.31-.87h.29l.29.44Zm2-7.72-.87.15-.15-.29.58-.29H56Zm0-6.12.44.73L56,119Zm1.6.73.29.15.29.58h-2C56.92,119.56,57.19,119.54,57.6,119.1ZM57,122.31l-.58.29.29-.44Zm.44,9.32-.87-.29-.29-1c1,.28.88.42,1.31,1.17Zm1-8.45-.29.73-.58-.73Zm-.15,4.22v1C58.15,127.67,58,128.11,58.33,127.4Zm-.44,5,.15-.58.73,1Zm.58-.29v-.58l.44.44Zm.73-1.31-.29.15-.29-.44v-.29l.73.29Zm.15-2,.58-.29.15,1-.58-.15Zm3.35,2.77-2.77.29.29-.44c1.25,0,1.83-.07,2.62-1C63.24,130.72,63,131,62.7,131.48Zm.44-1.89L63,129.3l.73.15Zm-.44-5.24v-.44l.58-.29h.29l.29.15Zm1.6-1c.19.49-.23.36-.29.44Zm0,4.37.58.58C64.29,128,64,128.22,64.3,127.7Zm.87,6.12-.87-1.6.44-.73,1,2.19ZM65,130.61l1.31-1.46.44.15c.43.61,0-.12.73.15l-.15.29Zm2,.44.44.15C67.05,131.27,67.39,131.21,67.07,131Z"/></svg>