<svg xmlns="http://www.w3.org/2000/svg" width="67" height="67" viewBox="0 0 67 67" version="1"><g style="fill-rule:evenodd;fill:none"><g fill="#FFF"><g transform="translate(-18 -1535)translate(-43 1022)translate(61 513)"><path d="M33.5 67C52 67 67 52 67 33.5 67 15 52 0 33.5 0 15 0 0 15 0 33.5 0 52 15 67 33.5 67ZM18.5 15.3L13.9 15.3 13.9 35 15.7 35 15.7 26 18 26 18 24.2 15.7 24.2 15.7 17.1 18.5 17.1 18.5 15.3ZM21.3 15.3L20.2 16.4 20.2 34 21.3 35 24.7 35 25.8 34 25.8 16.4 24.7 15.3 21.3 15.3ZM29.2 15.3L27.4 15.3 27.4 35 31.7 35 31.7 33.2 29.2 33.2 29.2 15.3ZM34.7 15.3L32.9 15.3 32.9 35 37.2 35 37.2 33.2 34.7 33.2 34.7 15.3ZM39.5 15.3L38.4 16.4 38.4 34 39.5 35 42.9 35 44 34 44 16.4 42.9 15.3 39.5 15.3ZM53.7 15.3L51.9 15.3 51 25.1 50.2 15.3 48.5 15.3 47.6 25.3 46.8 15.3 45.1 15.3 46.8 35 48.6 35 49.4 25.3 50.2 35 52 35 53.7 15.3ZM32.7 38.3L30.8 38.3 30.8 56.2 28.9 56.2 28.9 38.3 27.1 38.3 27.1 57 28.2 58 31.6 58 32.7 57 32.7 38.3ZM35.4 38.3L34.3 39.3 34.3 45.4 38.1 50.6 38.1 56.2 36.2 56.2 36.2 52.5 34.3 52.5 34.3 57 35.4 58 38.8 58 39.9 57 39.9 50.2 36.2 45.1 36.2 40.1 38.1 40.1 38.1 43.8 39.9 43.8 39.9 39.3 38.8 38.3 35.4 38.3Z"/><polygon points="42.1 17.1 42.1 33.2 40.2 33.2 40.2 17.1"/><polygon points="23.9 17.1 23.9 33.2 22 33.2 22 17.1"/></g></g></g></svg>